# 3ds Max Wavefront OBJ Exporter v0.97b - (c)2007 guruware
# File Created: 06.02.2018 18:02:49

mtllib meeting_room_small.mtl

#
# object meeting_room_small
#

v  0.0000 0.0000 0.0000
v  0.0000 0.0000 300.0000
v  -23.5237 0.0000 207.0000
v  -23.5237 0.0000 0.0000
v  -150.0000 0.0000 0.0000
v  -126.4762 0.0000 0.0000
v  -126.4762 0.0000 207.0000
v  -150.0000 0.0000 300.0000
v  300.0000 0.0000 0.0000
v  300.0000 -150.0000 0.0000
v  300.0000 -150.0000 300.0000
v  300.0000 0.0000 300.0000
v  300.0000 -300.0000 0.0000
v  300.0000 -300.0000 300.0000
v  300.0000 -450.0000 0.0000
v  300.0000 -450.0000 300.0000
v  150.0000 -450.0000 0.0000
v  150.0000 -450.0000 300.0000
v  0.0000 -450.0000 0.0000
v  0.0000 -450.0000 300.0000
v  -150.0000 -450.0000 0.0000
v  -150.0000 -450.0000 300.0000
v  -300.0000 -450.0000 0.0000
v  -300.0000 -450.0000 300.0000
v  -300.0000 -300.0000 0.0000
v  -300.0000 -150.0000 0.0000
v  -300.0000 -150.0000 300.0000
v  -300.0000 -300.0000 300.0000
v  -300.0000 0.0000 0.0000
v  -300.0000 0.0000 300.0000
v  150.0000 0.0000 0.0000
v  150.0000 0.0000 300.0000
v  -150.0000 -150.0000 300.0000
v  0.0000 -150.0000 300.0000
v  -150.0000 -300.0000 300.0000
v  0.0000 -300.0000 300.0000
v  150.0000 -300.0000 300.0000
v  150.0000 -150.0000 300.0000
v  0.0000 10.0000 0.0000
v  -23.5237 10.0000 0.0000
v  -23.5237 10.0000 207.0000
v  0.0000 10.0000 300.0000
v  -150.0000 10.0000 0.0000
v  -150.0000 10.0000 300.0000
v  -126.4762 10.0000 207.0000
v  -126.4762 10.0000 0.0000
# 46 vertices

vn 0.0000 -1.0000 0.0000
vn -1.0000 0.0000 0.0000
vn 0.0000 1.0000 0.0000
vn 1.0000 0.0000 0.0000
vn 1.0000 -0.0000 -0.0000
vn 1.0000 -0.0000 0.0000
vn -0.0000 -1.0000 -0.0000
vn 0.0000 0.0000 -1.0000
# 8 vertex normals

vt 0.0000 0.0000 0.0000
vt 0.5000 0.0000 0.0000
vt 0.0000 1.0000 0.0000
vt 0.5000 1.0000 0.0000
vt 0.0784 0.0000 0.0000
vt 0.4216 0.0000 0.0000
vt 0.4216 0.6900 0.0000
vt 0.0784 0.6900 0.0000
vt 0.0000 0.0000 0.0000
vt 0.5000 0.0000 0.0000
vt 0.0000 1.0000 0.0000
vt 0.5000 1.0000 0.0000
vt 0.0000 0.0000 0.0000
vt 0.5000 0.0000 0.0000
vt 0.0000 1.0000 0.0000
vt 0.5000 1.0000 0.0000
vt 0.5000 0.0000 0.0000
vt 1.0000 0.0000 0.0000
vt 0.5000 1.0000 0.0000
vt 1.0000 1.0000 0.0000
vt 0.0000 0.0000 0.0000
vt 0.5000 0.0000 0.0000
vt 0.0000 1.0000 0.0000
vt 0.5000 1.0000 0.0000
vt 0.0000 0.0000 0.0000
vt 0.5000 0.0000 0.0000
vt 0.0000 1.0000 0.0000
vt 0.5000 1.0000 0.0000
vt 0.0000 0.0000 0.0000
vt 0.5000 0.0000 0.0000
vt 0.0000 1.0000 0.0000
vt 0.5000 1.0000 0.0000
vt 0.0000 0.0000 0.0000
vt 0.5000 0.0000 0.0000
vt 0.0000 1.0000 0.0000
vt 0.5000 1.0000 0.0000
vt 0.0000 0.0000 0.0000
vt 0.5000 0.0000 0.0000
vt 0.0000 1.0000 0.0000
vt 0.5000 1.0000 0.0000
vt 0.0000 0.0000 0.0000
vt 0.5000 0.0000 0.0000
vt 0.0000 1.0000 0.0000
vt 0.5000 1.0000 0.0000
vt 0.0000 0.0000 0.0000
vt 0.5000 0.0000 0.0000
vt 0.0000 1.0000 0.0000
vt 0.5000 1.0000 0.0000
vt 0.0000 0.0000 0.0000
vt 0.5000 0.0000 0.0000
vt 0.0000 1.0000 0.0000
vt 0.5000 1.0000 0.0000
vt 0.0000 0.0000 0.0000
vt 0.5000 0.0000 0.0000
vt 0.0000 1.0000 0.0000
vt 0.5000 1.0000 0.0000
vt 0.0000 0.0000 0.0000
vt 0.5000 0.0000 0.0000
vt 0.0000 1.0000 0.0000
vt 0.5000 1.0000 0.0000
vt 0.0000 0.0000 0.0000
vt 1.0000 0.0000 0.0000
vt 0.0000 1.0000 0.0000
vt 1.0000 1.0000 0.0000
vt 0.0000 0.0000 0.0000
vt 1.0000 0.0000 0.0000
vt 0.0000 1.0000 0.0000
vt 1.0000 1.0000 0.0000
vt 0.0000 0.0000 0.0000
vt 1.0000 0.0000 0.0000
vt 0.0000 1.0000 0.0000
vt 1.0000 1.0000 0.0000
vt 0.0000 0.0000 0.0000
vt 1.0000 0.0000 0.0000
vt 0.0000 1.0000 0.0000
vt 1.0000 1.0000 0.0000
vt 0.0000 0.0000 0.0000
vt 1.0000 0.0000 0.0000
vt 0.0000 1.0000 0.0000
vt 1.0000 1.0000 0.0000
vt 0.0000 0.0000 0.0000
vt 1.0000 0.0000 0.0000
vt 0.0000 1.0000 0.0000
vt 1.0000 1.0000 0.0000
vt 0.0000 0.0000 0.0000
vt 1.0000 0.0000 0.0000
vt 0.0000 1.0000 0.0000
vt 1.0000 1.0000 0.0000
vt 0.0000 0.0000 0.0000
vt 1.0000 0.0000 0.0000
vt 0.0000 1.0000 0.0000
vt 1.0000 1.0000 0.0000
vt 0.0000 0.0000 0.0000
vt 1.0000 0.0000 0.0000
vt 0.0000 1.0000 0.0000
vt 1.0000 1.0000 0.0000
vt 0.0000 0.0000 0.0000
vt 1.0000 0.0000 0.0000
vt 0.0000 1.0000 0.0000
vt 1.0000 1.0000 0.0000
vt 0.0000 0.0000 0.0000
vt 1.0000 0.0000 0.0000
vt 0.0000 1.0000 0.0000
vt 1.0000 1.0000 0.0000
vt 0.0000 0.0000 0.0000
vt 1.0000 0.0000 0.0000
vt 0.0000 1.0000 0.0000
vt 1.0000 1.0000 0.0000
vt 0.0000 0.0000 0.0000
vt 0.5000 0.0000 0.0000
vt 0.0000 1.0000 0.0000
vt 0.5000 1.0000 0.0000
vt 0.0784 0.0000 0.0000
vt 0.4216 0.0000 0.0000
vt 0.4216 0.6900 0.0000
vt 0.0784 0.6900 0.0000
# 116 texture coords

g meeting_room_small
usemtl wall_plain_and_door
s off
f 1/2/1 2/4/1 3/7/1 4/6/1
f 5/1/1 6/5/1 7/8/1 8/3/1
f 3/7/1 2/4/1 8/3/1 7/8/1
f 9/9/2 10/10/2 11/12/2 12/11/2
f 10/13/2 13/14/2 14/16/2 11/15/2
f 13/17/2 15/18/2 16/20/2 14/19/2
f 15/21/3 17/22/3 18/24/3 16/23/3
f 17/25/3 19/26/3 20/28/3 18/27/3
f 19/29/3 21/30/3 22/32/3 20/31/3
f 21/33/3 23/34/3 24/36/3 22/35/3
f 25/37/4 26/38/4 27/40/4 28/39/4
f 23/41/5 25/42/5 28/44/5 24/43/5
f 26/45/6 29/46/6 30/48/6 27/47/6
usemtl wall_window_and_elevator
f 29/49/7 5/50/7 8/52/7 30/51/7
f 1/53/1 31/54/1 32/56/1 2/55/1
f 31/57/1 9/58/1 12/60/1 32/59/1
usemtl ceiling
f 27/61/8 30/63/8 8/64/8 33/62/8
f 33/65/8 8/67/8 2/68/8 34/66/8
f 35/69/8 33/71/8 34/72/8 36/70/8
f 28/73/8 27/75/8 33/76/8 35/74/8
f 22/77/8 35/79/8 36/80/8 20/78/8
f 24/81/8 28/83/8 35/84/8 22/82/8
f 20/85/8 36/87/8 37/88/8 18/86/8
f 36/89/8 34/91/8 38/92/8 37/90/8
f 34/93/8 2/95/8 32/96/8 38/94/8
f 38/97/8 32/99/8 12/100/8 11/98/8
f 37/101/8 38/103/8 11/104/8 14/102/8
f 18/105/8 37/107/8 14/108/8 16/106/8
usemtl wall_plain_and_door
f 39/110/3 40/114/3 41/115/3 42/112/3
f 43/109/3 44/111/3 45/116/3 46/113/3
f 41/115/3 45/116/3 44/111/3 42/112/3
# 31 polygons

