# Blender v2.79 (sub 2) OBJ File: ''
# www.blender.org
mtllib Calf_Left.mtl
o Calf_Left
v 0.051995 0.025023 -0.205564
v 0.013072 0.025023 -0.214260
v 0.026246 0.041997 -0.113141
v 0.052390 0.041997 -0.123860
v -0.057337 0.040136 -0.232622
v -0.079046 0.059425 -0.080398
v -0.003359 0.059425 -0.101003
v -0.000847 0.040136 -0.233566
v -0.018041 0.040136 -0.238161
v -0.010750 0.059425 -0.072658
v -0.074722 0.059425 -0.038381
v -0.027512 0.059425 -0.054959
v 0.051897 0.041997 -0.003062
v 0.012882 0.041997 0.017027
v 0.013592 -0.000006 0.014108
v 0.054739 -0.000006 -0.003696
v 0.068229 0.041997 -0.050423
v 0.077859 -0.000006 -0.056992
v 0.063263 -0.000006 -0.124666
v 0.013279 0.011765 -0.228871
v 0.057400 0.011765 -0.216706
v 0.060992 -0.000006 -0.216233
v 0.013279 -0.000006 -0.228871
v -0.111840 0.040863 -0.071821
v -0.083837 0.023767 -0.229864
v -0.100081 -0.000006 -0.226645
v -0.126637 -0.000006 -0.068564
v 0.053749 0.021312 -0.213753
v 0.061330 -0.000006 -0.202607
v -0.092029 -0.000006 0.013172
v -0.079727 0.024009 0.010464
v -0.093682 0.024009 -0.021174
v -0.105984 -0.000006 -0.018466
v -0.018041 -0.000006 -0.238161
v -0.121665 -0.000006 -0.024717
v -0.106869 0.040863 -0.027973
v -0.058635 0.041997 -0.031040
v -0.017631 0.041997 -0.043482
v -0.000639 0.041997 -0.060604
v 0.011553 0.041997 -0.107117
v -0.044319 0.041997 0.001732
v 0.071456 -0.000006 0.043331
v 0.087607 -0.000006 0.040236
v 0.081209 0.030080 0.038617
v 0.069732 0.030080 0.041138
v 0.042035 0.041997 -0.040577
v 0.035832 0.068099 -0.041599
v 0.045695 0.068099 -0.004085
v 0.061654 0.068099 -0.009501
v 0.053846 0.068099 -0.045282
v 0.089950 0.041997 -0.009501
v 0.100480 -0.000006 -0.011900
v 0.073231 0.055523 0.025145
v 0.061282 0.055523 0.027666
v 0.013225 0.021312 -0.224999
v -0.064630 -0.000006 0.023542
v -0.023714 -0.000006 0.021638
v -0.039284 0.023050 0.022821
v -0.058178 0.023441 0.021492
v -0.022940 -0.000006 -0.004085
v -0.021083 0.041997 0.000574
v 0.026246 -0.042010 -0.113141
v 0.013072 -0.025036 -0.214260
v 0.051995 -0.025036 -0.205564
v 0.052390 -0.042010 -0.123860
v -0.003359 -0.059437 -0.101003
v -0.079046 -0.059437 -0.080398
v -0.057337 -0.040149 -0.232621
v -0.018041 -0.040149 -0.238161
v -0.000847 -0.040149 -0.233566
v -0.010750 -0.059437 -0.072658
v -0.027512 -0.059437 -0.054959
v -0.074722 -0.059437 -0.038381
v 0.051897 -0.042010 -0.003062
v 0.012882 -0.042010 0.017027
v 0.068229 -0.042010 -0.050423
v 0.013279 -0.011778 -0.228871
v 0.057400 -0.011778 -0.216706
v -0.111840 -0.040875 -0.071821
v -0.083837 -0.023779 -0.229864
v 0.053749 -0.021325 -0.213753
v -0.093682 -0.024021 -0.021174
v -0.079727 -0.024021 0.010464
v -0.106869 -0.040875 -0.027973
v -0.058635 -0.042010 -0.031040
v -0.017631 -0.042010 -0.043482
v 0.011553 -0.042010 -0.107117
v -0.000639 -0.042010 -0.060604
v 0.013225 -0.021325 -0.224999
v -0.044319 -0.042010 0.001732
v 0.069732 -0.030093 0.041138
v 0.081209 -0.030093 0.038617
v 0.042035 -0.042010 -0.040577
v 0.035832 -0.068111 -0.041599
v 0.053846 -0.068112 -0.045282
v 0.061654 -0.068111 -0.009501
v 0.045695 -0.068111 -0.004085
v 0.089950 -0.042010 -0.009501
v 0.061282 -0.055536 0.027666
v 0.073231 -0.055536 0.025145
v -0.058178 -0.023453 0.021492
v -0.039284 -0.023062 0.022821
v -0.021083 -0.042010 0.000574
v -0.038027 0.054250 -0.160714
v -0.071883 0.054272 -0.176965
v -0.085467 0.052721 -0.205360
v -0.054765 0.041014 -0.336813
v 0.078389 0.041110 -0.273505
v 0.035668 0.049046 -0.193351
v 0.005538 0.052738 -0.163967
v -0.034278 0.075082 -0.172366
v 0.001243 0.075082 -0.177120
v -0.019192 0.075082 -0.204462
v -0.071847 0.075082 -0.209670
v -0.040619 0.075082 -0.337302
v -0.061098 0.075082 -0.187587
v 0.063693 0.075082 -0.281480
v 0.025705 0.075082 -0.200021
v 0.014156 0.075082 -0.307990
v -0.085467 -0.052734 -0.205360
v -0.071883 -0.054284 -0.176965
v -0.038027 -0.054263 -0.160714
v 0.005538 -0.052750 -0.163967
v 0.035668 -0.049058 -0.193351
v 0.078389 -0.041123 -0.273505
v -0.054765 -0.041026 -0.336813
v -0.034278 -0.075095 -0.172366
v -0.019192 -0.075095 -0.204462
v 0.001243 -0.075095 -0.177120
v -0.040619 -0.075095 -0.337302
v -0.071847 -0.075095 -0.209670
v -0.061098 -0.075095 -0.187587
v 0.025705 -0.075095 -0.200021
v 0.063693 -0.075095 -0.281480
v 0.014156 -0.075095 -0.307990
vt 0.274100 0.246800
vt 0.287800 0.274300
vt 0.281700 0.280000
vt 0.267000 0.250300
vt 0.240300 0.362900
vt 0.238300 0.370600
vt 0.206200 0.362200
vt 0.210600 0.355100
vt 0.941200 0.613800
vt 0.963400 0.613800
vt 0.977900 0.625500
vt 0.995100 0.703700
vt 0.907900 0.704000
vt 0.910200 0.650200
vt 0.918800 0.626700
vt 0.370200 0.106700
vt 0.356900 0.090200
vt 0.356800 0.064900
vt 0.371500 0.039500
vt 0.398200 0.029800
vt 0.459400 0.027200
vt 0.459100 0.126300
vt 0.298800 0.267200
vt 0.288100 0.242700
vt 0.357400 0.238000
vt 0.353900 0.256600
vt 0.157600 0.589000
vt 0.161800 0.485300
vt 0.209100 0.505400
vt 0.196200 0.596300
vt 0.183800 0.597300
vt 0.206200 0.484700
vt 0.165300 0.459000
vt 0.196000 0.471100
vt 0.715100 0.251800
vt 0.715300 0.285100
vt 0.683200 0.284100
vt 0.683200 0.249800
vt 0.697200 0.201000
vt 0.645300 0.206200
vt 0.644500 0.177200
vt 0.692700 0.169700
vt 0.140200 0.478300
vt 0.135700 0.585500
vt 0.115000 0.582900
vt 0.115000 0.475500
vt 0.762200 0.168500
vt 0.761000 0.176400
vt 0.755300 0.180200
vt 0.750200 0.160800
vt 0.760700 0.159200
vt 0.427200 0.130600
vt 0.425000 0.148600
vt 0.402300 0.143800
vt 0.404400 0.125700
vt 0.848300 0.631300
vt 0.874900 0.631300
vt 0.874900 0.658300
vt 0.819200 0.658300
vt 0.830300 0.642300
vt 0.886900 0.631300
vt 0.896900 0.650400
vt 0.896900 0.658300
vt 0.115000 0.448000
vt 0.142400 0.451900
vt 0.115000 0.435000
vt 0.142200 0.436500
vt 0.175500 0.445200
vt 0.207900 0.458300
vt 0.220400 0.474500
vt 0.224500 0.512100
vt 0.213700 0.587100
vt 0.399900 0.170900
vt 0.423400 0.175900
vt 0.572300 0.188300
vt 0.583300 0.186600
vt 0.586800 0.205800
vt 0.580100 0.210400
vt 0.441300 0.211500
vt 0.433300 0.239900
vt 0.407300 0.238500
vt 0.359400 0.227500
vt 0.388300 0.213100
vt 0.647800 0.239000
vt 0.619400 0.239900
vt 0.621400 0.228700
vt 0.645400 0.226500
vt 0.616900 0.206100
vt 0.614200 0.181800
vt 0.916100 0.586700
vt 0.916500 0.567300
vt 0.929800 0.568800
vt 0.929400 0.588200
vt 0.598100 0.221300
vt 0.594500 0.228500
vt 0.910500 0.543500
vt 0.923300 0.551200
vt 0.895400 0.567100
vt 0.895400 0.542100
vt 0.699300 0.220800
vt 0.915000 0.623800
vt 0.293200 0.269600
vt 0.280600 0.244300
vt 0.683200 0.346300
vt 0.683200 0.327500
vt 0.693800 0.333600
vt 0.695600 0.342300
vt 0.710600 0.330400
vt 0.699500 0.356400
vt 0.683200 0.364400
vt 0.683200 0.314200
vt 0.425800 0.191400
vt 0.397300 0.199600
vt 0.714200 0.313700
vt 0.232200 0.279600
vt 0.241600 0.348500
vt 0.215400 0.342900
vt 0.214600 0.286800
vt 0.020900 0.505400
vt 0.068200 0.485300
vt 0.072400 0.589000
vt 0.046200 0.597300
vt 0.033700 0.596300
vt 0.023800 0.484700
vt 0.034000 0.471100
vt 0.064700 0.459000
vt 0.651300 0.251800
vt 0.651000 0.285100
vt 0.687600 0.138600
vt 0.636500 0.149200
vt 0.089800 0.478300
vt 0.094200 0.585500
vt 0.749200 0.140900
vt 0.755800 0.142800
vt 0.759300 0.149900
vt 0.323400 0.189700
vt 0.332800 0.210900
vt 0.315500 0.216700
vt 0.306100 0.195400
vt 0.874900 0.685300
vt 0.848300 0.685300
vt 0.830300 0.674300
vt 0.896900 0.666200
vt 0.886900 0.685300
vt 0.087500 0.451900
vt 0.087700 0.436500
vt 0.054500 0.445200
vt 0.022000 0.458300
vt 0.005500 0.512100
vt 0.009600 0.474500
vt 0.016300 0.595100
vt 0.016300 0.587100
vt 0.289300 0.224500
vt 0.279700 0.202400
vt 0.573100 0.164800
vt 0.580900 0.167200
vt 0.241300 0.192100
vt 0.250300 0.244300
vt 0.242100 0.275600
vt 0.221600 0.230800
vt 0.215000 0.205600
vt 0.629000 0.117200
vt 0.630500 0.129900
vt 0.606900 0.135000
vt 0.601600 0.124900
vt 0.609500 0.157900
vt 0.874700 0.586700
vt 0.861400 0.588200
vt 0.861000 0.568800
vt 0.874400 0.567300
vt 0.581300 0.143300
vt 0.587000 0.149100
vt 0.867500 0.551200
vt 0.880400 0.543500
vt 0.683600 0.119000
vt 0.875800 0.623800
vt 0.214100 0.348900
vt 0.241400 0.356100
vt 0.670800 0.342300
vt 0.672600 0.333600
vt 0.655700 0.330400
vt 0.666900 0.356400
vt 0.261700 0.232800
vt 0.264100 0.203200
vt 0.652100 0.313700
vt 0.213700 0.595100
vt 0.218200 0.600700
vt 0.011800 0.600700
vt 0.590800 0.258700
vt 0.609500 0.272200
vt 0.589600 0.281500
vt 0.510900 0.342300
vt 0.544700 0.255400
vt 0.558200 0.267500
vt 0.534200 0.351800
vt 0.594800 0.242400
vt 0.571100 0.259000
vt 0.565700 0.241800
vt 0.636500 0.289300
vt 0.641000 0.352900
vt 0.614500 0.352700
vt 0.616900 0.292500
vt 0.623000 0.260100
vt 0.576100 0.352700
vt 0.578400 0.726300
vt 0.579600 0.749000
vt 0.559800 0.739800
vt 0.658400 0.809900
vt 0.635000 0.819300
vt 0.611000 0.735100
vt 0.624500 0.722900
vt 0.574400 0.709900
vt 0.603500 0.709400
vt 0.598200 0.726600
vt 0.532700 0.756900
vt 0.552400 0.760000
vt 0.554700 0.820300
vt 0.528300 0.820400
vt 0.546200 0.727600
vt 0.593100 0.820300
vn 0.2607 0.0204 -0.9652
vn 0.2607 -0.0204 -0.9652
vn -0.0372 -0.9962 0.0791
vn -0.0372 0.9962 0.0791
vn 0.0520 0.9586 -0.2799
vn 0.0628 0.9628 -0.2627
vn -0.0628 0.9824 -0.1759
vn -0.1002 0.9645 -0.2444
vn -0.2530 0.9538 -0.1618
vn -0.2854 0.9559 -0.0689
vn -0.0180 0.9962 -0.0847
vn 0.0383 0.9890 -0.1432
vn 0.0060 0.9901 -0.1399
vn 0.0000 1.0000 0.0000
vn -0.2858 0.9578 0.0294
vn 0.4264 -0.0191 0.9043
vn 0.4571 -0.0540 0.8878
vn 0.4285 -0.0000 0.9035
vn 0.3971 0.0000 0.9178
vn 0.9494 0.2806 -0.1414
vn 0.8661 0.3872 -0.3161
vn 0.9451 -0.0000 -0.3269
vn 0.9912 0.0000 -0.1327
vn -0.7702 0.6365 -0.0407
vn -0.6767 0.7095 -0.1967
vn -0.9737 0.0000 -0.2278
vn -0.9998 0.0000 -0.0196
vn 0.9423 0.3341 0.0185
vn 0.9376 0.3448 0.0445
vn 0.9435 0.3313 -0.0034
vn 0.9999 -0.0000 -0.0105
vn 0.9997 0.0000 -0.0248
vn -0.9149 0.0000 0.4036
vn -0.6268 0.7287 0.2760
vn -0.6582 0.6948 0.2899
vn -0.1313 -0.0082 -0.9913
vn -0.1396 0.0000 -0.9902
vn -0.1393 -0.0000 -0.9902
vn -0.1160 -0.0000 -0.9933
vn -0.0351 -0.1106 -0.9932
vn 0.2617 -0.0207 -0.9649
vn 0.3154 -0.0000 -0.9490
vn 0.2860 0.0000 -0.9582
vn 0.2844 0.0000 -0.9587
vn 0.2696 -0.0125 -0.9629
vn -0.9936 -0.0000 0.1127
vn -0.7717 0.6302 0.0863
vn -0.3324 0.0000 0.9431
vn -0.0950 0.3107 0.9457
vn -0.0761 0.3380 0.9381
vn -0.3703 0.0000 0.9289
vn 0.1752 0.5271 0.8315
vn 0.4026 0.6555 0.6389
vn 0.3944 0.6428 0.6567
vn 0.1324 0.4821 0.8660
vn 0.6888 0.6357 0.3484
vn 0.6464 0.6507 0.3985
vn 0.7663 0.6421 0.0232
vn 0.7728 0.6272 0.0971
vn 0.7997 0.5892 -0.1154
vn 0.8050 0.5572 -0.2038
vn -0.2263 0.9690 0.0993
vn -0.1784 0.9809 0.0778
vn 0.1944 -0.0000 0.9809
vn 0.1882 -0.0000 0.9821
vn 0.2016 0.2784 0.9391
vn 0.2027 0.3160 0.9269
vn -0.0224 0.9983 -0.0545
vn -0.0346 0.9850 -0.1690
vn 0.0541 0.9857 0.1594
vn 0.0490 0.9865 0.1564
vn -0.0426 0.9836 -0.1752
vn 0.8861 0.4532 -0.0972
vn 0.9922 0.0000 -0.1243
vn 0.7837 0.5680 -0.2516
vn 0.6762 0.7330 -0.0735
vn -0.9490 -0.2165 0.2291
vn -0.9376 -0.1676 0.3048
vn -0.9371 -0.1989 0.2868
vn -0.9490 -0.2165 0.2292
vn 0.1369 0.7524 0.6443
vn 0.1290 0.8022 0.5830
vn 0.9270 0.2860 0.2426
vn 0.9708 0.0000 0.2397
vn 0.8153 0.5511 0.1777
vn -0.9280 -0.0618 0.3675
vn -0.9072 -0.0829 0.4125
vn -0.9422 -0.0000 0.3349
vn -0.9358 0.0000 0.3526
vn -0.9535 -0.2185 0.2075
vn 0.1874 0.6809 -0.7080
vn 0.1949 0.6817 -0.7052
vn 0.2481 0.3705 -0.8951
vn 0.2474 0.3653 -0.8974
vn -0.2364 -0.0000 0.9717
vn 0.0465 0.0000 0.9989
vn -0.0086 0.3189 0.9478
vn -0.2192 0.4761 0.8516
vn -0.1478 0.7706 0.6200
vn -0.3669 0.4276 0.8262
vn -0.3540 -0.0000 0.9353
vn 0.8873 0.4277 0.1725
vn 0.8727 0.4718 0.1258
vn 0.9943 0.0000 0.1063
vn 0.9995 -0.0000 0.0301
vn -0.2116 -0.0958 0.9727
vn 0.0495 -0.1123 0.9924
vn -0.3270 -0.0000 0.9450
vn -0.4414 0.0000 0.8973
vn -0.4349 -0.0697 0.8978
vn -0.0628 -0.9824 -0.1759
vn 0.0628 -0.9628 -0.2627
vn 0.0520 -0.9586 -0.2799
vn -0.1002 -0.9645 -0.2444
vn -0.0180 -0.9962 -0.0847
vn -0.2854 -0.9559 -0.0689
vn -0.2530 -0.9538 -0.1618
vn 0.0060 -0.9901 -0.1399
vn 0.0383 -0.9890 -0.1432
vn -0.0000 -1.0000 -0.0000
vn -0.2858 -0.9578 0.0294
vn 0.4265 0.0192 0.9043
vn 0.4571 0.0540 0.8878
vn 0.9493 -0.2806 -0.1414
vn 0.8661 -0.3872 -0.3161
vn -0.7702 -0.6365 -0.0407
vn -0.6767 -0.7095 -0.1967
vn 0.9435 -0.3313 -0.0034
vn 0.9376 -0.3448 0.0445
vn 0.9423 -0.3341 0.0185
vn -0.6578 -0.6950 0.2903
vn -0.6268 -0.7287 0.2760
vn -0.1313 0.0082 -0.9913
vn -0.0351 0.1106 -0.9932
vn 0.2617 0.0207 -0.9649
vn 0.2696 0.0125 -0.9629
vn -0.7717 -0.6302 0.0863
vn -0.0761 -0.3380 0.9381
vn -0.0950 -0.3107 0.9457
vn 0.1752 -0.5271 0.8315
vn 0.1324 -0.4821 0.8660
vn 0.3944 -0.6428 0.6567
vn 0.4026 -0.6555 0.6389
vn 0.6890 -0.6357 0.3481
vn 0.7728 -0.6272 0.0971
vn 0.7663 -0.6421 0.0232
vn 0.6464 -0.6507 0.3985
vn 0.8050 -0.5572 -0.2038
vn 0.8011 -0.3936 -0.4510
vn 0.7997 -0.5892 -0.1154
vn -0.2263 -0.9690 0.0993
vn -0.1783 -0.9809 0.0779
vn 0.2027 -0.3160 0.9269
vn 0.2016 -0.2784 0.9391
vn -0.0224 -0.9983 -0.0545
vn -0.0346 -0.9850 -0.1690
vn -0.0426 -0.9836 -0.1752
vn 0.0490 -0.9865 0.1564
vn 0.0541 -0.9857 0.1594
vn 0.8861 -0.4532 -0.0972
vn 0.6762 -0.7330 -0.0735
vn 0.7837 -0.5680 -0.2516
vn -0.9490 0.2165 0.2291
vn -0.9490 0.2165 0.2292
vn -0.9371 0.1989 0.2868
vn -0.9376 0.1676 0.3048
vn 0.1290 -0.8022 0.5830
vn 0.1369 -0.7524 0.6443
vn 0.9270 -0.2860 0.2426
vn 0.8151 -0.5513 0.1781
vn -0.9072 0.0829 0.4125
vn -0.9280 0.0618 0.3675
vn -0.9535 0.2185 0.2075
vn 0.1874 -0.6809 -0.7080
vn 0.1948 -0.6817 -0.7052
vn 0.2481 -0.3705 -0.8951
vn 0.2474 -0.3653 -0.8974
vn -0.2192 -0.4761 0.8516
vn -0.0086 -0.3189 0.9478
vn -0.1478 -0.7706 0.6200
vn -0.3669 -0.4276 0.8262
vn 0.8873 -0.4277 0.1725
vn 0.8727 -0.4718 0.1259
vn -0.2114 0.0955 0.9727
vn 0.0495 0.1123 0.9924
vn -0.4349 0.0697 0.8978
vn 0.8011 0.3936 -0.4510
vn 0.7314 0.2598 -0.6305
vn 0.7314 -0.2598 -0.6305
vn -0.8960 0.3839 -0.2233
vn -0.8417 0.5357 0.0673
vn -0.8536 0.5184 0.0510
vn -0.9019 0.3713 -0.2207
vn -0.1606 0.5269 0.8346
vn -0.1522 0.5032 0.8507
vn -0.5952 0.5675 0.5690
vn -0.5854 0.5882 0.5580
vn 0.7544 0.4219 0.5029
vn 0.8094 0.4411 0.3877
vn 0.8125 0.4359 0.3871
vn 0.7401 0.4325 0.5149
vn 0.3704 0.5089 0.7770
vn 0.3679 0.5154 0.7739
vn -0.8960 -0.3839 -0.2233
vn -0.9019 -0.3713 -0.2207
vn -0.8536 -0.5184 0.0510
vn -0.8417 -0.5357 0.0673
vn -0.1606 -0.5269 0.8346
vn -0.5854 -0.5882 0.5580
vn -0.5952 -0.5674 0.5690
vn -0.1522 -0.5032 0.8507
vn 0.7544 -0.4219 0.5029
vn 0.7401 -0.4325 0.5149
vn 0.8125 -0.4359 0.3871
vn 0.8094 -0.4411 0.3877
vn 0.3704 -0.5089 0.7770
vn 0.3679 -0.5154 0.7739
usemtl servicebot
s off
f 20/1/1 21/2/1 22/3/1 23/4/1
f 77/5/2 23/6/2 22/7/2 78/8/2
f 104/9/3 105/10/3 106/11/3 107/12/3 108/13/3 109/14/3 110/15/3
f 120/16/4 121/17/4 122/18/4 123/19/4 124/20/4 125/21/4 126/22/4
s 1
f 1/23/5 2/24/6 3/25/7 4/26/8
f 5/27/9 6/28/10 7/29/11 8/30/12 9/31/13
f 10/32/14 7/29/11 6/28/10 11/33/15 12/34/14
f 13/35/16 14/36/17 15/37/18 16/38/19
f 4/39/20 17/40/21 18/41/22 19/42/23
f 24/43/24 25/44/25 26/45/26 27/46/27
f 21/47/28 28/48/29 1/49/30 29/50/31 22/51/32
f 30/52/33 31/53/34 32/54/35 33/55/33
f 5/56/36 9/57/37 34/58/38 26/59/39 25/60/40
f 8/61/41 20/62/42 23/63/43 34/58/44 9/57/45
f 24/43/24 27/46/27 35/64/46 36/65/47
f 33/66/48 32/67/49 36/65/50 35/64/51
f 37/68/52 38/69/53 12/34/54 11/33/55
f 10/32/56 39/70/57 40/71/58 7/29/59
f 40/71/58 2/72/60 8/30/61 7/29/59
f 10/32/56 12/34/54 38/69/53 39/70/57
f 5/27/9 25/44/25 24/43/24 6/28/10
f 6/28/10 24/43/24 36/65/47 11/33/15
f 37/73/62 32/54/35 31/53/34 41/74/63
f 11/33/55 36/65/50 32/67/49 37/68/52
f 42/75/64 43/76/65 44/77/66 45/78/67
f 14/79/14 13/80/14 46/81/14 3/25/7 40/82/68 39/83/14
f 47/84/69 48/85/70 49/86/71 50/87/72
f 17/40/21 51/88/73 52/89/74 18/41/22
f 51/88/73 17/40/21 50/87/75 49/86/76
f 46/90/77 13/91/78 48/92/79 47/93/80
f 45/78/67 44/77/66 53/94/81 54/95/82
f 52/89/74 51/88/73 44/77/83 43/76/84
f 51/88/73 49/86/76 53/94/85 44/77/83
f 49/86/71 48/85/70 54/95/82 53/94/81
f 48/92/79 13/91/78 45/96/86 54/97/87
f 13/91/78 16/98/88 42/99/89 45/96/86
f 3/100/7 47/84/69 50/87/72 4/39/8
f 50/87/75 17/40/21 4/39/20
f 46/90/77 47/93/80 3/101/90
f 28/102/91 55/103/92 2/24/6 1/23/5
f 21/2/93 20/1/94 55/103/92 28/102/91
f 1/49/30 4/39/20 19/42/23 29/50/31
f 56/104/95 57/105/96 58/106/97 59/107/98
f 58/106/97 41/108/99 59/107/98
f 41/108/99 31/109/100 59/107/98
f 31/109/100 30/110/101 56/104/95 59/107/98
f 41/108/102 58/106/103 60/111/104
f 58/106/103 57/105/105 60/111/104
f 37/73/62 41/74/63 61/112/14 38/113/14
f 61/114/106 41/108/107 60/111/108
f 38/113/14 61/112/14 14/79/14 39/83/14
f 61/114/106 60/111/108 15/37/109 14/36/110
f 62/115/111 63/116/112 64/117/113 65/118/114
f 66/119/115 67/120/116 68/121/117 69/122/118 70/123/119
f 67/120/116 66/119/115 71/124/120 72/125/120 73/126/121
f 74/127/122 16/38/19 15/37/18 75/128/123
f 65/129/124 19/42/23 18/41/22 76/130/125
f 79/131/126 27/46/27 26/45/26 80/132/127
f 64/133/128 81/134/129 78/135/130 22/51/32 29/50/31
f 30/136/33 33/137/33 82/138/131 83/139/132
f 34/58/38 69/140/37 68/141/133 80/142/134 26/59/39
f 23/63/43 77/143/42 70/144/135 69/140/136 34/58/44
f 79/131/126 84/145/137 35/64/46 27/46/27
f 33/66/48 35/64/51 84/145/138 82/146/139
f 85/147/140 73/126/141 72/125/142 86/148/143
f 71/124/144 66/119/145 87/149/146 88/150/147
f 70/123/148 89/151/149 63/152/150
f 71/124/144 88/150/147 86/148/143 72/125/142
f 68/121/117 67/120/116 79/131/126 80/132/127
f 67/120/116 73/126/121 84/145/137 79/131/126
f 85/153/151 90/154/152 83/139/132 82/138/131
f 73/126/141 85/147/140 82/146/139 84/145/138
f 42/75/64 91/155/153 92/156/154 43/76/65
f 75/157/120 88/158/120 87/159/155 62/115/111 93/160/120 74/161/120
f 94/162/156 95/163/157 96/164/158 97/165/159
f 76/130/125 18/41/22 52/89/74 98/166/160
f 98/166/160 96/164/161 95/163/162 76/130/125
f 93/167/163 94/168/164 97/169/165 74/170/166
f 91/155/153 99/171/167 100/172/168 92/156/154
f 52/89/74 43/76/84 92/156/169 98/166/160
f 98/166/160 92/156/169 100/172/170 96/164/161
f 96/164/158 100/172/168 99/171/167 97/165/159
f 97/169/165 99/173/171 91/174/172 74/170/166
f 74/170/166 91/174/172 42/99/89 16/98/88
f 62/175/111 65/129/114 95/163/157 94/162/156
f 95/163/162 65/129/124 76/130/125
f 93/167/163 62/176/173 94/168/164
f 81/177/174 64/117/113 63/116/112 89/178/175
f 78/8/176 81/177/174 89/178/175 77/5/177
f 64/133/128 29/50/31 19/42/23 65/129/124
f 56/104/95 101/179/178 102/180/179 57/105/96
f 102/180/179 101/179/178 90/181/180
f 90/181/180 101/179/178 83/182/181
f 83/182/181 101/179/178 56/104/95 30/110/101
f 90/181/182 60/111/104 102/180/183
f 102/180/183 60/111/104 57/105/105
f 85/153/151 86/183/120 103/184/120 90/154/152
f 103/185/184 60/111/108 90/181/185
f 86/183/120 88/158/120 75/157/120 103/184/120
f 103/185/184 75/128/186 15/37/109 60/111/108
f 2/24/6 40/82/68 3/25/7
f 55/186/187 20/187/188 8/30/61
f 8/30/61 2/72/60 55/186/187
f 70/123/148 63/152/150 87/149/146 66/119/145
f 70/123/148 77/188/189 89/151/149
f 62/115/111 87/159/155 63/116/112
f 111/189/14 112/190/14 113/191/14
f 107/192/190 106/193/191 114/194/192 115/195/193
f 104/196/194 111/189/195 116/197/196 105/198/197
f 109/199/198 108/200/199 117/201/200 118/202/201
f 106/193/191 105/198/197 116/197/196 114/194/192
f 110/203/202 109/199/198 118/202/201 112/190/203
f 119/204/14 115/195/14 114/194/14 113/191/14
f 104/196/194 110/203/202 112/190/203 111/189/195
f 112/190/14 118/202/14 113/191/14
f 113/191/14 116/197/14 111/189/14
f 113/191/14 114/194/14 116/197/14
f 118/202/14 117/201/14 119/204/14 113/191/14
f 127/205/120 128/206/120 129/207/120
f 126/208/204 130/209/205 131/210/206 120/211/207
f 122/212/208 121/213/209 132/214/210 127/205/211
f 124/215/212 133/216/213 134/217/214 125/218/215
f 120/211/207 131/210/206 132/214/210 121/213/209
f 123/219/216 129/207/217 133/216/213 124/215/212
f 135/220/120 128/206/120 131/210/120 130/209/120
f 122/212/208 127/205/211 129/207/217 123/219/216
f 129/207/120 128/206/120 133/216/120
f 128/206/120 127/205/120 132/214/120
f 128/206/120 132/214/120 131/210/120
f 133/216/120 128/206/120 135/220/120 134/217/120
