# Blender v2.79 (sub 2) OBJ File: ''
# www.blender.org
mtllib Foot_Left.mtl
o CasterBracket_Left
v -0.143946 -0.015268 -0.062613
v -0.133603 -0.015268 -0.063742
v -0.123729 -0.017583 -0.035858
v -0.140568 -0.017583 -0.036955
v -0.123269 -0.011008 -0.034616
v -0.133603 -0.010624 -0.063742
v -0.143946 -0.010624 -0.062613
v -0.142155 -0.011008 -0.034780
v -0.143946 0.017999 -0.062613
v -0.140568 0.020312 -0.036955
v -0.123729 0.020312 -0.035858
v -0.133603 0.017999 -0.063742
v -0.123269 0.013738 -0.034616
v -0.142155 0.013738 -0.034780
v -0.143946 0.013353 -0.062613
v -0.133603 0.013353 -0.063742
v -0.142243 -0.017269 -0.060592
v -0.147806 -0.017269 -0.062082
v -0.151878 -0.017269 -0.066155
v -0.153369 -0.017269 -0.071718
v -0.151878 -0.017269 -0.077280
v -0.147806 -0.017269 -0.081353
v -0.142243 -0.017269 -0.082843
v -0.136680 -0.017269 -0.081353
v -0.132608 -0.017269 -0.077280
v -0.131117 -0.017269 -0.071718
v -0.132608 -0.017269 -0.066155
v -0.136680 -0.017269 -0.062082
v -0.154415 0.001365 -0.064690
v -0.156298 0.001365 -0.071718
v -0.149271 0.001365 -0.059545
v -0.142243 0.001365 -0.057662
v -0.135216 0.001365 -0.059545
v -0.130071 0.001365 -0.064690
v -0.128188 0.001365 -0.071718
v -0.130071 0.001365 -0.078745
v -0.135216 0.001365 -0.083890
v -0.142243 0.001365 -0.085773
v -0.149271 0.001365 -0.083890
v -0.154415 0.001365 -0.078745
v -0.142243 0.020000 -0.082843
v -0.147806 0.020000 -0.081353
v -0.151878 0.020000 -0.077280
v -0.153369 0.020000 -0.071718
v -0.151878 0.020000 -0.066155
v -0.147806 0.020000 -0.062082
v -0.142243 0.020000 -0.060592
v -0.136680 0.020000 -0.062082
v -0.132608 0.020000 -0.066155
v -0.131117 0.020000 -0.071718
v -0.132608 0.020000 -0.077280
v -0.136680 0.020000 -0.081353
v -0.086542 -0.035090 -0.002085
v -0.086542 -0.075355 -0.002085
v -0.075235 -0.075356 0.040113
v -0.075235 -0.035090 0.040113
v -0.044344 -0.075356 0.071003
v -0.044344 -0.035090 0.071004
v -0.002146 -0.075356 0.082310
v -0.002146 -0.035090 0.082310
v 0.040052 -0.075356 0.071003
v 0.040052 -0.035090 0.071004
v 0.070943 -0.075356 0.040113
v 0.070943 -0.035090 0.040113
v 0.082250 -0.075356 -0.002085
v 0.082250 -0.035090 -0.002085
v 0.070943 -0.075356 -0.044283
v 0.070943 -0.035090 -0.044283
v 0.040052 -0.075356 -0.075174
v 0.040052 -0.035090 -0.075174
v -0.002146 -0.075356 -0.086481
v -0.002146 -0.035090 -0.086481
v -0.044344 -0.075356 -0.075174
v -0.044344 -0.035090 -0.075174
v -0.075235 -0.075356 -0.044283
v -0.075235 -0.035090 -0.044283
v -0.002146 -0.088928 0.073134
v -0.039755 -0.088928 0.063056
v -0.067287 -0.088928 0.035524
v -0.077365 -0.088928 -0.002085
v -0.067287 -0.088928 -0.039695
v -0.039755 -0.088928 -0.067227
v -0.002146 -0.088928 -0.077304
v 0.035464 -0.088928 -0.067227
v 0.062996 -0.088928 -0.039695
v 0.073073 -0.088928 -0.002085
v 0.062996 -0.088928 0.035524
v 0.035463 -0.088928 0.063056
v -0.086542 0.037819 -0.002085
v -0.075235 0.037819 0.040113
v -0.075235 0.078085 0.040113
v -0.086542 0.078085 -0.002085
v -0.044344 0.037819 0.071004
v -0.044344 0.078085 0.071003
v -0.002146 0.037819 0.082310
v -0.002146 0.078085 0.082310
v 0.040052 0.037819 0.071004
v 0.040052 0.078085 0.071003
v 0.070943 0.037819 0.040113
v 0.070943 0.078085 0.040113
v 0.082250 0.037819 -0.002085
v 0.082250 0.078085 -0.002085
v 0.070943 0.037819 -0.044283
v 0.070943 0.078085 -0.044283
v 0.040052 0.037819 -0.075174
v 0.040052 0.078085 -0.075174
v -0.002146 0.037819 -0.086481
v -0.002146 0.078085 -0.086481
v -0.044344 0.037819 -0.075174
v -0.044344 0.078085 -0.075174
v -0.075235 0.037819 -0.044283
v -0.075235 0.078085 -0.044283
v -0.002146 0.091657 -0.077304
v -0.039755 0.091657 -0.067227
v -0.067287 0.091657 -0.039695
v -0.077365 0.091657 -0.002085
v -0.067287 0.091657 0.035524
v -0.039755 0.091657 0.063056
v -0.002146 0.091657 0.073134
v 0.035463 0.091657 0.063056
v 0.062996 0.091657 0.035524
v 0.073073 0.091657 -0.002085
v 0.062996 0.091657 -0.039695
v 0.035464 0.091657 -0.067227
v 0.139853 -0.044558 -0.004747
v 0.090277 -0.063738 0.022498
v 0.093297 -0.074420 -0.001650
v 0.145978 -0.051700 -0.021460
v 0.150383 -0.051433 -0.060836
v 0.081564 -0.074420 -0.060836
v 0.085639 -0.044884 -0.060836
v 0.160963 -0.034613 -0.060836
v 0.150236 -0.029821 -0.010228
v 0.156511 -0.034613 -0.024034
v 0.158815 0.001365 -0.024034
v 0.152540 0.001365 -0.010228
v 0.142839 0.001365 -0.004035
v 0.099903 0.001365 0.022036
v 0.094193 -0.039873 0.022310
v 0.163267 0.001365 -0.060836
v 0.091190 0.001365 -0.060836
v 0.086266 -0.044971 0.022310
v 0.069598 -0.074420 -0.001650
v 0.046464 -0.074420 -0.060836
v 0.066578 -0.063738 0.022498
v 0.050539 -0.050849 -0.060836
v 0.078723 -0.050849 -0.060836
v 0.070494 -0.044971 0.022310
v 0.103052 0.001365 -0.021026
v 0.097421 -0.042379 -0.020889
v 0.139853 0.047287 -0.004747
v 0.145978 0.054429 -0.021460
v 0.093297 0.077149 -0.001650
v 0.090277 0.066467 0.022498
v 0.150383 0.054163 -0.060836
v 0.160963 0.037342 -0.060836
v 0.085639 0.047613 -0.060836
v 0.081564 0.077149 -0.060836
v 0.150236 0.032550 -0.010228
v 0.156511 0.037342 -0.024034
v 0.094193 0.042602 0.022310
v 0.086266 0.047700 0.022310
v 0.046464 0.077149 -0.060836
v 0.069598 0.077149 -0.001650
v 0.066578 0.066467 0.022498
v 0.078723 0.053578 -0.060836
v 0.050539 0.053578 -0.060836
v 0.070494 0.047700 0.022310
v 0.097421 0.045108 -0.020889
v -0.087484 0.061012 -0.039518
v -0.094133 0.054370 0.001431
v -0.070499 0.054380 0.022701
v -0.049424 0.069744 -0.051942
v -0.100829 0.012041 -0.039517
v -0.111194 0.011324 0.003143
v -0.115886 0.001366 0.002667
v -0.105965 0.001366 -0.039517
v -0.073515 0.043754 -0.051943
v -0.089034 0.041529 0.015650
v -0.161869 0.001366 -0.039518
v -0.156462 0.017409 -0.039518
v -0.148685 0.014298 -0.019839
v -0.046202 0.043430 -0.051942
v -0.154091 0.001366 -0.019839
v -0.070499 -0.051649 0.022701
v -0.094133 -0.051638 0.001431
v -0.087484 -0.058281 -0.039518
v -0.049424 -0.067012 -0.051942
v -0.100829 -0.009310 -0.039517
v -0.111194 -0.008592 0.003143
v -0.089034 -0.038797 0.015650
v -0.073515 -0.041023 -0.051943
v -0.156462 -0.014677 -0.039518
v -0.148685 -0.011566 -0.019839
v -0.046202 -0.040697 -0.051942
v -0.066874 0.041377 0.028157
v -0.066874 -0.038646 0.028157
vt 0.824700 0.598700
vt 0.834900 0.578100
vt 0.784500 0.563000
vt 0.785000 0.615900
vt 0.726100 0.372000
vt 0.682000 0.383100
vt 0.693500 0.412000
vt 0.725900 0.427600
vt 0.786700 0.625700
vt 0.819700 0.610800
vt 0.838800 0.093800
vt 0.793600 0.088300
vt 0.791300 0.106000
vt 0.843900 0.106700
vt 0.235900 0.656300
vt 0.253200 0.616600
vt 0.200200 0.616100
vt 0.215300 0.666500
vt 0.302200 0.860100
vt 0.260000 0.896300
vt 0.292900 0.910900
vt 0.322400 0.900900
vt 0.263000 0.618200
vt 0.248000 0.651300
vt 0.471600 0.239000
vt 0.466500 0.251900
vt 0.519100 0.251200
vt 0.516800 0.233500
vt 0.547600 0.127400
vt 0.522200 0.112600
vt 0.492900 0.112400
vt 0.467400 0.127000
vt 0.452500 0.152300
vt 0.452400 0.181700
vt 0.466900 0.207200
vt 0.492300 0.222000
vt 0.521600 0.222100
vt 0.547100 0.207600
vt 0.562000 0.182300
vt 0.562100 0.152900
vt 0.190800 0.834700
vt 0.205100 0.859100
vt 0.229700 0.873100
vt 0.258000 0.873000
vt 0.282400 0.858700
vt 0.296500 0.834100
vt 0.296300 0.805800
vt 0.282000 0.781400
vt 0.257400 0.767300
vt 0.229100 0.767500
vt 0.204700 0.781800
vt 0.190700 0.806400
vt 0.592200 0.600300
vt 0.566700 0.585800
vt 0.537300 0.585900
vt 0.512000 0.600800
vt 0.497400 0.626300
vt 0.497600 0.655600
vt 0.512400 0.681000
vt 0.537900 0.695500
vt 0.567300 0.695400
vt 0.592600 0.680500
vt 0.607200 0.655000
vt 0.607000 0.625700
vt 0.077800 0.037000
vt 0.049500 0.036900
vt 0.024900 0.050900
vt 0.010600 0.075300
vt 0.010400 0.103600
vt 0.024500 0.128200
vt 0.048900 0.142500
vt 0.077200 0.142700
vt 0.101800 0.128700
vt 0.116100 0.104200
vt 0.116200 0.075900
vt 0.102200 0.051300
vt 0.625300 0.415200
vt 0.609800 0.461400
vt 0.629600 0.458700
vt 0.636600 0.408100
vt 0.660700 0.455000
vt 0.660700 0.406500
vt 0.609700 0.485000
vt 0.625600 0.482300
vt 0.625600 0.463300
vt 0.639300 0.397600
vt 0.646400 0.386300
vt 0.595800 0.393200
vt 0.593100 0.413100
vt 0.647900 0.362100
vt 0.599500 0.362100
vt 0.591200 0.397200
vt 0.572200 0.397200
vt 0.569500 0.413100
vt 0.809700 0.570500
vt 0.804900 0.607300
vt 0.785000 0.615900
vt 0.784500 0.563000
vt 0.693500 0.412000
vt 0.682000 0.383100
vt 0.704100 0.377500
vt 0.709700 0.419800
vt 0.855700 0.075000
vt 0.843900 0.106700
vt 0.838800 0.093800
vt 0.847700 0.073000
vt 0.819700 0.610800
vt 0.803200 0.618300
vt 0.824700 0.598700
vt 0.791300 0.106000
vt 0.793600 0.088300
vt 0.816200 0.091000
vt 0.817600 0.106300
vt 0.253200 0.616600
vt 0.244500 0.636400
vt 0.207800 0.641300
vt 0.200200 0.616100
vt 0.292900 0.910900
vt 0.276500 0.903600
vt 0.312300 0.880500
vt 0.322400 0.900900
vt 0.454700 0.220200
vt 0.462700 0.218200
vt 0.471600 0.239000
vt 0.466500 0.251900
vt 0.255500 0.634800
vt 0.248000 0.651300
vt 0.235900 0.656300
vt 0.519100 0.251200
vt 0.492800 0.251500
vt 0.494200 0.236200
vt 0.516800 0.233500
vt 0.834900 0.578100
vt 0.726100 0.372000
vt 0.725900 0.427600
vt 0.786700 0.625700
vt 0.215300 0.666500
vt 0.260000 0.896300
vt 0.302200 0.860100
vt 0.263000 0.618200
vt 0.271700 0.550200
vt 0.271700 0.522800
vt 0.285300 0.499100
vt 0.309000 0.485400
vt 0.336400 0.485300
vt 0.360200 0.499000
vt 0.373900 0.522700
vt 0.373900 0.550100
vt 0.360300 0.573900
vt 0.336600 0.587600
vt 0.309200 0.587600
vt 0.285400 0.573900
vt 0.260300 0.474100
vt 0.299800 0.451200
vt 0.237500 0.513700
vt 0.237500 0.559400
vt 0.260400 0.599000
vt 0.300000 0.621800
vt 0.345800 0.621800
vt 0.385300 0.598900
vt 0.408100 0.559200
vt 0.408100 0.513500
vt 0.385200 0.473900
vt 0.345600 0.451100
vt 0.373900 0.522700
vt 0.360200 0.499000
vt 0.336400 0.485300
vt 0.309000 0.485400
vt 0.285300 0.499100
vt 0.271700 0.522800
vt 0.271700 0.550200
vt 0.285400 0.573900
vt 0.309200 0.587600
vt 0.336600 0.587600
vt 0.360300 0.573900
vt 0.373900 0.550100
vt 0.318200 0.970900
vt 0.318200 0.998000
vt 0.347500 0.998000
vt 0.347500 0.970900
vt 0.376900 0.998000
vt 0.376900 0.970900
vt 0.406300 0.998000
vt 0.406300 0.970900
vt 0.435600 0.998000
vt 0.435600 0.970900
vt 0.465000 0.998000
vt 0.465000 0.970900
vt 0.494300 0.998000
vt 0.494300 0.970900
vt 0.523700 0.998000
vt 0.523700 0.970900
vt 0.553100 0.998000
vt 0.553100 0.970900
vt 0.582400 0.998000
vt 0.582400 0.970900
vt 0.230100 0.970900
vt 0.230100 0.998000
vt 0.259500 0.998000
vt 0.259500 0.970900
vt 0.288800 0.998000
vt 0.288800 0.970900
vt 0.259800 0.879400
vt 0.228000 0.879600
vt 0.200400 0.863900
vt 0.184400 0.836400
vt 0.184200 0.804700
vt 0.199900 0.777100
vt 0.227400 0.761100
vt 0.259100 0.760900
vt 0.286700 0.776600
vt 0.302700 0.804000
vt 0.302900 0.835800
vt 0.287200 0.863400
vt 0.784800 0.731300
vt 0.784800 0.760700
vt 0.811800 0.760700
vt 0.811800 0.731300
vt 0.784800 0.790100
vt 0.811800 0.790100
vt 0.784800 0.819400
vt 0.811800 0.819400
vt 0.784800 0.848800
vt 0.811800 0.848800
vt 0.784800 0.878100
vt 0.811800 0.878100
vt 0.784800 0.907500
vt 0.811800 0.907500
vt 0.784800 0.936800
vt 0.811800 0.936800
vt 0.784800 0.966200
vt 0.811800 0.966200
vt 0.784800 0.995600
vt 0.811800 0.995600
vt 0.784800 0.643300
vt 0.784800 0.672600
vt 0.811800 0.672600
vt 0.811800 0.643300
vt 0.784800 0.702000
vt 0.811800 0.702000
vt 0.004200 0.073600
vt 0.004000 0.105300
vt 0.019700 0.132900
vt 0.047100 0.149000
vt 0.078900 0.149100
vt 0.106500 0.133400
vt 0.122500 0.106000
vt 0.122700 0.074200
vt 0.107000 0.046600
vt 0.079500 0.030600
vt 0.047800 0.030400
vt 0.020200 0.046200
vt 0.954400 0.490100
vt 0.979600 0.459600
vt 0.962200 0.455200
vt 0.943100 0.489100
vt 0.951900 0.501500
vt 0.942000 0.501000
vt 0.946700 0.524900
vt 0.958000 0.521800
vt 0.925000 0.441200
vt 0.917400 0.489100
vt 0.917400 0.503500
vt 0.966400 0.518100
vt 0.996800 0.501900
vt 0.986400 0.475300
vt 0.920900 0.528700
vt 0.996000 0.456200
vt 0.966100 0.439800
vt 0.929100 0.418000
vt 0.984800 0.443400
vt 0.996700 0.450200
vt 0.965500 0.913600
vt 0.993900 0.914200
vt 0.995000 0.884800
vt 0.965700 0.884900
vt 0.958500 0.913600
vt 0.954300 0.857300
vt 0.947900 0.913400
vt 0.935300 0.857000
vt 0.993400 0.856400
vt 0.961300 0.857500
vt 0.520700 0.407800
vt 0.519700 0.396500
vt 0.485800 0.415600
vt 0.490300 0.433000
vt 0.532100 0.405300
vt 0.552400 0.411400
vt 0.555600 0.400100
vt 0.531700 0.395400
vt 0.519800 0.370800
vt 0.471900 0.378400
vt 0.534200 0.370800
vt 0.505900 0.439800
vt 0.532600 0.450200
vt 0.548800 0.419800
vt 0.559300 0.374200
vt 0.486900 0.449300
vt 0.448600 0.382500
vt 0.470400 0.419500
vt 0.474100 0.438100
vt 0.480900 0.450100
vt 0.391900 0.853700
vt 0.392100 0.882500
vt 0.421400 0.882600
vt 0.420300 0.853100
vt 0.384900 0.853800
vt 0.380600 0.910100
vt 0.374200 0.853900
vt 0.361600 0.910400
vt 0.387700 0.909900
vt 0.419700 0.911000
vt 0.674000 0.420100
vt 0.661200 0.392000
vt 0.860100 0.600800
vt 0.844700 0.617000
vt 0.835900 0.625100
vt 0.329100 0.922500
vt 0.299500 0.931000
vt 0.238000 0.691700
vt 0.254200 0.676300
vt 0.262300 0.667400
vn -0.0001 -0.9963 -0.0861
vn 0.0004 0.9999 0.0134
vn -0.9839 -0.1561 0.0872
vn 0.9425 -0.0016 -0.3342
vn -0.0001 0.9963 -0.0861
vn 0.0004 -0.9999 0.0134
vn -0.9839 0.1561 0.0872
vn 0.9425 0.0016 -0.3342
vn 0.0000 1.0000 0.0000
vn 0.0000 -1.0000 -0.0000
vn 0.0000 -0.0000 -1.0000
vn -0.1595 0.9761 0.1476
vn 0.7705 -0.6159 0.1645
vn -0.5786 0.2601 0.7730
vn -0.2070 0.1919 -0.9593
vn -0.1595 -0.9761 0.1476
vn 0.7705 0.6159 0.1644
vn -0.5786 -0.2601 0.7730
vn -0.2070 -0.1919 -0.9593
vn -0.5717 0.8083 0.1407
vn -0.0022 -0.9996 -0.0295
vn -0.5479 0.3818 0.7444
vn -0.1617 0.0440 -0.9859
vn -0.5717 -0.8083 0.1407
vn -0.0022 0.9996 -0.0295
vn -0.5479 -0.3818 0.7444
vn -0.1617 -0.0440 -0.9859
vn -0.8555 -0.1553 0.4939
vn -0.8660 0.0000 0.5000
vn -1.0000 0.0000 -0.0000
vn -0.9879 -0.1553 -0.0000
vn -0.4940 -0.1553 0.8555
vn -0.5000 0.0000 0.8660
vn 0.0000 -0.1553 0.9879
vn 0.0000 0.0000 1.0000
vn 0.4939 -0.1553 0.8555
vn 0.5000 0.0000 0.8660
vn 0.8555 -0.1553 0.4939
vn 0.8660 0.0000 0.5000
vn 0.9879 -0.1553 -0.0000
vn 1.0000 -0.0000 -0.0000
vn 0.8555 -0.1553 -0.4939
vn 0.8660 -0.0000 -0.5000
vn 0.4939 -0.1553 -0.8555
vn 0.5000 0.0000 -0.8660
vn 0.0000 -0.1553 -0.9879
vn -0.4940 -0.1553 -0.8555
vn -0.5000 0.0000 -0.8660
vn -0.8555 -0.1553 -0.4939
vn -0.8660 0.0000 -0.5000
vn -0.8555 0.1553 0.4939
vn -0.9879 0.1553 -0.0000
vn -0.4940 0.1553 0.8555
vn 0.0000 0.1553 0.9879
vn 0.4940 0.1553 0.8555
vn 0.8555 0.1553 0.4939
vn 0.9879 0.1553 -0.0000
vn 0.8555 0.1553 -0.4939
vn 0.4940 0.1553 -0.8555
vn 0.0000 0.1553 -0.9879
vn -0.4940 0.1553 -0.8555
vn -0.8555 0.1553 -0.4939
vn -0.8284 -0.5602 0.0000
vn -0.7174 -0.5602 0.4142
vn -0.4142 -0.5601 0.7174
vn 0.0000 -0.5601 0.8284
vn 0.4142 -0.5601 0.7174
vn 0.7174 -0.5601 0.4142
vn 0.8284 -0.5601 0.0000
vn 0.7174 -0.5601 -0.4142
vn 0.4142 -0.5601 -0.7174
vn -0.0000 -0.5601 -0.8284
vn -0.4142 -0.5601 -0.7174
vn -0.7174 -0.5601 -0.4142
vn -0.8284 0.5602 0.0000
vn -0.7174 0.5602 0.4142
vn -0.4142 0.5601 0.7174
vn 0.0000 0.5601 0.8284
vn 0.4142 0.5601 0.7174
vn 0.7174 0.5601 0.4142
vn 0.8284 0.5601 0.0000
vn 0.7174 0.5601 -0.4142
vn 0.4142 0.5601 -0.7174
vn -0.0000 0.5601 -0.8284
vn -0.4142 0.5601 -0.7174
vn -0.7174 0.5601 -0.4142
vn 0.6145 -0.3983 0.6810
vn 0.2449 -0.5302 0.8118
vn 0.2545 -0.9424 0.2170
vn 0.6459 -0.7231 0.2449
vn 0.7463 -0.1528 0.6478
vn 0.9176 -0.2833 0.2789
vn 0.9626 0.0000 0.2710
vn 0.7610 0.0000 0.6488
vn 0.1570 -0.9875 -0.0156
vn 0.6314 -0.7727 0.0654
vn 0.9483 -0.2974 0.1107
vn 0.5267 0.0000 0.8500
vn 0.5113 0.0000 0.8594
vn 0.4065 -0.0549 0.9120
vn 0.9928 0.0000 0.1201
vn -0.0029 0.0094 1.0000
vn -0.0000 -0.9814 0.1920
vn -0.0000 -0.5593 0.8290
vn 0.0000 0.0100 0.9999
vn -0.8415 0.5325 -0.0912
vn -0.9973 -0.0000 -0.0729
vn -0.9945 -0.0000 0.1046
vn -0.8138 0.5788 0.0519
vn -0.2757 0.9582 -0.0768
vn -0.2871 0.9579 0.0104
vn 0.0000 0.9975 -0.0705
vn -0.9597 0.0000 0.2811
vn -0.8395 0.4984 0.2164
vn 0.6145 0.3983 0.6810
vn 0.6459 0.7231 0.2449
vn 0.2545 0.9424 0.2170
vn 0.2449 0.5302 0.8118
vn 0.7463 0.1528 0.6478
vn 0.9176 0.2833 0.2789
vn 0.6314 0.7727 0.0654
vn 0.1570 0.9875 -0.0156
vn 0.9483 0.2974 0.1107
vn 0.4065 0.0549 0.9120
vn -0.0029 -0.0094 1.0000
vn 0.0000 0.9814 0.1920
vn 0.0000 0.5593 0.8290
vn 0.0000 -0.0100 0.9999
vn -0.8415 -0.5325 -0.0912
vn -0.8138 -0.5788 0.0519
vn -0.2757 -0.9582 -0.0768
vn -0.2871 -0.9579 0.0104
vn 0.0000 -0.9975 -0.0705
vn -0.8395 -0.4984 0.2164
vn 0.8814 -0.4246 0.2071
vn 0.9735 -0.0000 0.2288
vn -0.9191 -0.0000 0.3941
vn -0.9300 -0.0000 0.3676
vn -0.8699 0.3331 0.3639
vn -0.8721 0.2939 0.3912
vn -0.5098 -0.0000 0.8603
vn -0.5076 0.0000 0.8616
vn -0.4982 0.1974 0.8443
vn -0.4990 0.2087 0.8411
vn 0.8815 0.4243 0.2073
vn 0.8812 0.4251 0.2069
vn -0.8721 -0.2939 0.3912
vn -0.8698 -0.3331 0.3639
vn -0.4990 -0.2087 0.8411
vn -0.4982 -0.1974 0.8443
usemtl servicebot
s off
f 1/1/1 2/2/1 3/3/1 4/4/1
f 5/5/2 6/6/2 7/7/2 8/8/2
f 8/9/3 7/10/3 1/1/3 4/4/3
f 6/11/4 5/12/4 3/13/4 2/14/4
f 9/15/5 10/16/5 11/17/5 12/18/5
f 13/19/6 14/20/6 15/21/6 16/22/6
f 14/23/7 10/16/7 9/15/7 15/24/7
f 16/25/8 12/26/8 11/27/8 13/28/8
f 70/29/9 72/30/9 74/31/9 76/32/9 53/33/9 56/34/9 58/35/9 60/36/9 62/37/9 64/38/9 66/39/9 68/40/9
f 77/41/10 78/42/10 79/43/10 80/44/10 81/45/10 82/46/10 83/47/10 84/48/10 85/49/10 86/50/10 87/51/10 88/52/10
f 93/53/10 90/54/10 89/55/10 111/56/10 109/57/10 107/58/10 105/59/10 103/60/10 101/61/10 99/62/10 97/63/10 95/64/10
f 113/65/9 114/66/9 115/67/9 116/68/9 117/69/9 118/70/9 119/71/9 120/72/9 121/73/9 122/74/9 123/75/9 124/76/9
f 129/77/11 130/78/11 131/79/11 132/80/11
f 132/80/11 131/79/11 141/81/11 140/82/11
f 130/78/11 144/83/11 146/84/11 147/85/11
f 130/78/11 147/85/11 131/79/11
f 155/86/11 156/87/11 157/88/11 158/89/11
f 156/87/11 140/90/11 141/91/11 157/88/11
f 158/89/11 166/92/11 167/93/11 163/94/11
f 158/89/11 157/88/11 166/92/11
f 170/95/12 171/96/12 172/97/12 173/98/12
f 175/99/13 174/100/13 178/101/13 179/102/13
f 180/103/11 181/104/11 174/105/11 177/106/11
f 175/107/14 179/108/14 171/96/14 182/109/14
f 173/110/15 183/111/15 178/112/15 170/113/15
f 185/114/16 186/115/16 187/116/16 188/117/16
f 190/118/17 191/119/17 192/120/17 189/121/17
f 180/122/11 177/123/11 189/124/11 193/125/11
f 186/115/18 191/126/18 190/127/18 194/128/18
f 188/129/19 187/130/19 192/131/19 195/132/19
f 170/95/20 181/133/20 182/109/20 171/96/20
f 183/134/21 196/135/21 179/102/21 178/101/21
f 179/108/22 196/136/22 172/97/22 171/96/22
f 174/105/23 181/104/23 170/113/23 178/112/23
f 194/128/24 193/137/24 187/116/24 186/115/24
f 197/138/25 195/139/25 192/120/25 191/119/25
f 185/114/26 197/140/26 191/126/26 186/115/26
f 187/130/27 193/125/27 189/124/27 192/131/27
s 1
f 17/141/10 18/142/10 19/143/10 20/144/10 21/145/10 22/146/10 23/147/10 24/148/10 25/149/10 26/150/10 27/151/10 28/152/10
f 19/143/28 29/153/29 30/154/30 20/144/31
f 18/142/32 31/155/33 29/153/29 19/143/28
f 17/141/34 32/156/35 31/155/33 18/142/32
f 28/152/36 33/157/37 32/156/35 17/141/34
f 27/151/38 34/158/39 33/157/37 28/152/36
f 26/150/40 35/159/41 34/158/39 27/151/38
f 25/149/42 36/160/43 35/159/41 26/150/40
f 24/148/44 37/161/45 36/160/43 25/149/42
f 23/147/46 38/162/11 37/161/45 24/148/44
f 22/146/47 39/163/48 38/162/11 23/147/46
f 21/145/49 40/164/50 39/163/48 22/146/47
f 20/144/31 30/154/30 40/164/50 21/145/49
f 41/165/9 42/166/9 43/167/9 44/168/9 45/169/9 46/170/9 47/171/9 48/172/9 49/173/9 50/174/9 51/175/9 52/176/9
f 45/169/51 44/168/52 30/154/30 29/153/29
f 46/170/53 45/169/51 29/153/29 31/155/33
f 47/171/54 46/170/53 31/155/33 32/156/35
f 48/172/55 47/171/54 32/156/35 33/157/37
f 49/173/56 48/172/55 33/157/37 34/158/39
f 50/174/57 49/173/56 34/158/39 35/159/41
f 51/175/58 50/174/57 35/159/41 36/160/43
f 52/176/59 51/175/58 36/160/43 37/161/45
f 41/165/60 52/176/59 37/161/45 38/162/11
f 42/166/61 41/165/60 38/162/11 39/163/48
f 43/167/62 42/166/61 39/163/48 40/164/50
f 44/168/52 43/167/62 40/164/50 30/154/30
f 53/177/30 54/178/30 55/179/29 56/180/29
f 56/180/29 55/179/29 57/181/33 58/182/33
f 58/182/33 57/181/33 59/183/35 60/184/35
f 60/184/35 59/183/35 61/185/37 62/186/37
f 62/186/37 61/185/37 63/187/39 64/188/39
f 64/188/39 63/187/39 65/189/41 66/190/41
f 66/190/41 65/189/41 67/191/43 68/192/43
f 68/192/43 67/191/43 69/193/45 70/194/45
f 70/194/45 69/193/45 71/195/11 72/196/11
f 72/197/11 71/198/11 73/199/48 74/200/48
f 74/200/48 73/199/48 75/201/50 76/202/50
f 76/202/50 75/201/50 54/178/30 53/177/30
f 54/203/63 80/44/63 79/43/64 55/204/64
f 55/204/64 79/43/64 78/42/65 57/205/65
f 57/205/65 78/42/65 77/41/66 59/206/66
f 59/206/66 77/41/66 88/52/67 61/207/67
f 61/207/67 88/52/67 87/51/68 63/208/68
f 63/208/68 87/51/68 86/50/69 65/209/69
f 65/209/69 86/50/69 85/49/70 67/210/70
f 67/210/70 85/49/70 84/48/71 69/211/71
f 69/211/71 84/48/71 83/47/72 71/212/72
f 71/212/72 83/47/72 82/46/73 73/213/73
f 73/213/73 82/46/73 81/45/74 75/214/74
f 75/214/74 81/45/74 80/44/63 54/203/63
f 89/215/30 90/216/29 91/217/29 92/218/30
f 90/216/29 93/219/33 94/220/33 91/217/29
f 93/219/33 95/221/35 96/222/35 94/220/33
f 95/221/35 97/223/37 98/224/37 96/222/35
f 97/223/37 99/225/39 100/226/39 98/224/37
f 99/225/39 101/227/41 102/228/41 100/226/39
f 101/227/41 103/229/43 104/230/43 102/228/41
f 103/229/43 105/231/45 106/232/45 104/230/43
f 105/231/45 107/233/11 108/234/11 106/232/45
f 107/235/11 109/236/48 110/237/48 108/238/11
f 109/236/48 111/239/50 112/240/50 110/237/48
f 111/239/50 89/215/30 92/218/30 112/240/50
f 92/241/75 91/242/76 117/69/76 116/68/75
f 91/242/76 94/243/77 118/70/77 117/69/76
f 94/243/77 96/244/78 119/71/78 118/70/77
f 96/244/78 98/245/79 120/72/79 119/71/78
f 98/245/79 100/246/80 121/73/80 120/72/79
f 100/246/80 102/247/81 122/74/81 121/73/80
f 102/247/81 104/248/82 123/75/82 122/74/81
f 104/248/82 106/249/83 124/76/83 123/75/82
f 106/249/83 108/250/84 113/65/84 124/76/83
f 108/250/84 110/251/85 114/66/85 113/65/84
f 110/251/85 112/252/86 115/67/86 114/66/85
f 112/252/86 92/241/75 116/68/75 115/67/86
f 125/253/87 126/254/88 127/255/89 128/256/90
f 133/257/91 134/258/92 135/259/93 136/260/94
f 128/256/90 127/255/89 130/261/95 129/262/96
f 132/263/97 134/258/92 128/256/90 129/262/96
f 134/258/92 133/257/91 125/253/87 128/256/90
f 125/253/87 137/264/98 138/265/99 139/266/100
f 132/263/97 140/267/101 135/259/93 134/258/92
f 133/257/91 136/260/94 137/264/98 125/253/87
f 125/253/87 139/266/100 126/254/88
f 139/266/100 142/268/102 126/254/88
f 127/255/89 143/269/103 144/270/10 130/261/95
f 126/254/88 145/271/104 143/269/103 127/255/89
f 145/271/104 126/254/88 142/268/102 148/272/105
f 139/273/106 138/274/107 149/275/108 150/276/109
f 142/277/110 150/276/109 147/278/111
f 148/279/112 142/277/110 147/278/111 146/280/112
f 150/276/109 149/275/108 141/281/113 131/282/114
f 147/278/111 150/276/109 131/282/114
f 150/276/109 142/277/110 139/273/106
f 151/283/115 152/284/116 153/285/117 154/286/118
f 159/287/119 136/288/94 135/289/93 160/290/120
f 152/284/116 155/291/121 158/292/122 153/285/117
f 156/293/123 155/291/121 152/284/116 160/290/120
f 160/290/120 152/284/116 151/283/115 159/287/119
f 151/283/115 161/294/124 138/295/99 137/296/98
f 156/293/123 160/290/120 135/289/93 140/297/101
f 159/287/119 151/283/115 137/296/98 136/288/94
f 151/283/115 154/286/118 161/294/124
f 161/294/124 154/286/118 162/298/125
f 153/285/117 158/292/122 163/299/9 164/300/126
f 154/286/118 153/285/117 164/300/126 165/301/127
f 165/301/127 168/302/128 162/298/125 154/286/118
f 161/303/129 169/304/130 149/305/108 138/306/107
f 162/307/131 166/308/132 169/304/130
f 168/309/133 167/310/133 166/308/132 162/307/131
f 169/304/130 157/311/134 141/312/113 149/305/108
f 166/308/132 157/311/134 169/304/130
f 169/304/130 161/303/129 162/307/131
f 174/100/135 175/99/135 176/313/136 177/314/136
f 180/315/137 184/316/138 182/109/139 181/133/140
f 184/316/141 176/317/142 175/107/143 182/109/144
f 189/121/145 177/318/136 176/319/136 190/118/146
f 180/320/137 193/137/147 194/128/148 184/321/138
f 184/321/141 194/128/149 190/127/150 176/322/142
