# Blender v2.79 (sub 2) OBJ File: ''
# www.blender.org
mtllib Forearm_Left.mtl
o Forearm_Left
v -0.029724 0.108013 -0.000211
v -0.024915 0.113814 0.025581
v -0.014087 0.116538 0.036526
v 0.000247 0.118177 0.042438
v 0.036398 0.115749 0.033676
v 0.044041 0.113827 0.025533
v 0.047877 0.108013 -0.000211
v -0.030359 -0.040005 -0.045065
v -0.038228 -0.040005 -0.045065
v -0.022510 0.030729 -0.031598
v -0.002010 -0.024468 -0.045956
v -0.053759 -0.039650 -0.000506
v -0.045887 0.030729 0.002492
v -0.034069 0.030729 -0.024239
v -0.044725 -0.039650 -0.035562
v -0.040232 -0.040005 0.038283
v -0.029884 0.030729 0.036671
v -0.042814 0.030729 0.026639
v -0.050303 -0.039650 0.027352
v 0.055248 0.069371 0.001407
v 0.054866 0.042462 0.003025
v 0.049551 0.039407 -0.015165
v 0.042672 0.067239 -0.028103
v -0.005192 0.100726 -0.043033
v 0.009545 0.100726 -0.043033
v 0.005444 0.066782 -0.034416
v -0.014777 0.066782 -0.034416
v -0.034790 0.073015 0.026110
v -0.038731 0.069371 0.001140
v 0.044078 0.073214 0.034022
v 0.002655 0.074453 0.042967
v 0.000188 0.030729 0.043497
v 0.044075 0.030729 0.034605
v -0.007658 -0.025252 0.046599
v 0.029723 -0.019239 0.038623
v -0.022907 0.073634 0.036599
v -0.023490 -0.040117 -0.022087
v -0.031177 -0.047790 -0.017660
v -0.014262 0.101234 -0.035674
v 0.034702 0.101295 -0.036698
v 0.025525 0.100726 -0.043033
v 0.051771 0.072227 0.025849
v -0.025091 0.066782 -0.027057
v -0.053778 -0.064851 -0.000207
v -0.054485 -0.057647 0.019756
v -0.048907 -0.060449 -0.026571
v -0.040744 -0.064940 -0.032870
v -0.035755 -0.064940 -0.032870
v -0.037042 -0.056831 0.000166
v -0.033229 -0.048240 0.017913
v -0.037358 -0.062137 0.028294
v -0.040234 -0.075273 0.000855
v -0.045551 -0.062137 0.026973
v -0.048001 -0.075273 0.000691
v 0.042208 -0.018178 -0.022087
v 0.027735 -0.018178 -0.041260
v 0.044236 0.030729 -0.025152
v 0.050582 0.012850 -0.022087
v 0.050582 0.012850 0.023642
v 0.051725 0.030729 0.026290
v 0.039059 -0.018178 0.030896
v 0.042208 -0.018178 0.023642
v -0.003805 -0.029467 0.023642
v -0.031962 -0.040005 0.040104
v -0.027279 -0.038977 0.023643
v 0.033092 0.066782 -0.034416
v 0.001343 0.030729 -0.031598
v 0.034914 0.030729 -0.031598
v 0.017535 -0.019561 -0.046569
v -0.003805 -0.029467 -0.022087
v 0.054868 0.021074 -0.013942
v 0.054868 0.021074 0.016361
v 0.053295 0.039407 0.018924
v 0.059155 0.023675 0.001805
v -0.029321 0.018890 0.000166
v -0.025508 0.014251 0.017913
v -0.019558 0.009989 0.023642
v -0.023456 0.014701 -0.017660
v -0.015769 0.008849 -0.022087
vt 0.498300 0.870100
vt 0.493300 0.894900
vt 0.483000 0.905300
vt 0.469600 0.910800
vt 0.436400 0.901400
vt 0.429600 0.893300
vt 0.426600 0.868400
vt 0.193300 0.676900
vt 0.192700 0.683200
vt 0.110800 0.685200
vt 0.171700 0.655900
vt 0.190900 0.721100
vt 0.113400 0.722100
vt 0.112300 0.697300
vt 0.191800 0.692400
vt 0.191700 0.755200
vt 0.112400 0.756100
vt 0.113400 0.742500
vt 0.190900 0.743100
vt 0.054200 0.608500
vt 0.083100 0.603500
vt 0.089200 0.618200
vt 0.059800 0.634600
vt 0.027700 0.681300
vt 0.026100 0.669400
vt 0.065200 0.667500
vt 0.067600 0.684700
vt 0.065600 0.743500
vt 0.069300 0.722300
vt 0.057900 0.813600
vt 0.060500 0.778300
vt 0.109700 0.781900
vt 0.105100 0.819400
vt 0.173800 0.782500
vt 0.163100 0.814300
vt 0.019100 0.745600
vt 0.063800 0.756600
vt 0.015100 0.758300
vt 0.920900 0.714400
vt 0.925800 0.734900
vt 0.914600 0.739500
vt 0.476600 0.829000
vt 0.484900 0.835900
vt 0.439600 0.834000
vt 0.448200 0.828300
vt 0.463000 0.828700
vt 0.013700 0.835200
vt 0.011800 0.812200
vt 0.057800 0.822800
vt 0.057300 0.843700
vt 0.028900 0.690600
vt 0.069400 0.695600
vt 0.025200 0.723500
vt 0.216300 0.721700
vt 0.209100 0.736100
vt 0.213100 0.701500
vt 0.219500 0.694900
vt 0.892500 0.728600
vt 0.905000 0.756600
vt 0.917200 0.771100
vt 0.901400 0.782000
vt 0.883100 0.759600
vt 0.215200 0.743300
vt 0.227100 0.722600
vt 0.154600 0.611900
vt 0.159500 0.631400
vt 0.100600 0.626100
vt 0.118900 0.615600
vt 0.124300 0.832100
vt 0.104000 0.828900
vt 0.160800 0.824400
vt 0.160500 0.831100
vt 0.987300 0.773300
vt 0.957300 0.790100
vt 0.953000 0.769400
vt 0.994000 0.757400
vt 0.993300 0.764300
vt 0.929000 0.789600
vt 0.930000 0.774500
vt 0.024200 0.656500
vt 0.061500 0.644200
vt 0.107300 0.664500
vt 0.102500 0.635800
vt 0.163400 0.640300
vt 0.978900 0.719600
vt 0.989800 0.737700
vt 0.947200 0.734900
vt 0.952000 0.713500
vt 0.970200 0.714200
vt 0.108500 0.611200
vt 0.114200 0.838700
vt 0.093400 0.834000
vt 0.222100 0.691900
vt 0.232500 0.723200
vt 0.218700 0.748900
vt 0.192300 0.762500
vt 0.022900 0.647600
vt 0.011800 0.616800
vt 0.011100 0.802400
vt 0.011800 0.771100
vt 0.103000 0.599200
vt 0.109800 0.851400
vt 0.088100 0.847000
vt 0.704900 0.991100
vt 0.695000 0.976100
vt 0.780100 0.976100
vt 0.775200 0.991400
vt 0.715600 0.997400
vt 0.770900 0.998500
vt 0.705500 0.960700
vt 0.775800 0.960400
vt 0.714600 0.954000
vt 0.769800 0.952500
vt 0.596700 0.902500
vt 0.580500 0.905600
vt 0.580700 0.829200
vt 0.593600 0.832900
vt 0.604000 0.897800
vt 0.604800 0.837200
vt 0.564200 0.901200
vt 0.567000 0.833300
vt 0.555900 0.895200
vt 0.555400 0.837800
vt 0.520200 0.848200
vt 0.510800 0.888900
vt 0.500000 0.906900
vt 0.640200 0.846900
vt 0.650500 0.887400
vt 0.660100 0.908300
vn -0.0106 0.9790 -0.2036
vn -0.0292 0.9764 -0.2142
vn -0.0230 0.9760 -0.2167
vn -0.0025 0.9742 -0.2258
vn 0.0126 0.9758 -0.2185
vn 0.0075 0.9796 -0.2010
vn -0.0357 -0.0250 -0.9990
vn -0.4369 -0.0745 -0.8964
vn -0.2951 0.1361 -0.9457
vn -0.1064 0.2277 -0.9679
vn -0.9946 0.0794 -0.0664
vn -0.9800 0.1455 -0.1360
vn -0.7719 0.1710 -0.6123
vn -0.8893 0.0571 -0.4537
vn -0.4664 -0.1345 0.8743
vn -0.4342 0.0889 0.8964
vn -0.8642 0.1405 0.4832
vn -0.8942 0.0169 0.4473
vn 0.9882 0.0892 -0.1247
vn 0.9922 0.0924 -0.0842
vn 0.9049 0.0973 -0.4144
vn 0.7778 0.0127 -0.6284
vn -0.2719 -0.1639 -0.9483
vn 0.0000 -0.2461 -0.9693
vn 0.0000 -0.1626 -0.9867
vn -0.3190 -0.0691 -0.9452
vn -0.8674 0.1862 0.4614
vn -0.9672 0.1985 -0.1583
vn 0.5059 0.0568 0.8607
vn -0.0128 0.0257 0.9996
vn -0.0064 0.0378 0.9993
vn 0.5135 -0.0370 0.8573
vn -0.1029 0.0491 0.9935
vn 0.3879 -0.0280 0.9213
vn -0.8547 0.1963 0.4805
vn -0.4698 0.0932 0.8778
vn -0.5066 0.0680 0.8595
vn 0.7114 -0.6913 -0.1268
vn 0.5543 -0.8148 -0.1697
vn 0.9008 -0.4342 -0.0033
vn -0.0227 0.9833 -0.1804
vn -0.1468 0.9578 -0.2471
vn 0.0844 0.9741 -0.2098
vn 0.0164 0.9842 -0.1761
vn -0.0000 0.9858 -0.1678
vn 0.9777 0.1788 -0.1102
vn 0.8780 0.1647 0.4494
vn 0.9040 0.0931 0.4173
vn -0.7547 0.0677 -0.6525
vn -0.7597 0.1090 -0.6411
vn -0.9659 0.2227 -0.1324
vn -0.9614 -0.2682 -0.0608
vn -0.9376 -0.1723 0.3020
vn -0.8516 -0.2962 -0.4324
vn -0.3474 -0.6695 -0.6566
vn 0.9674 -0.2507 0.0350
vn 0.9730 -0.2281 0.0339
vn 0.9319 -0.3617 0.0290
vn 0.9671 -0.2544 -0.0029
vn 0.9851 -0.1693 0.0305
vn -0.4159 -0.6043 0.6796
vn -0.4645 -0.8846 0.0405
vn 0.7447 -0.0725 -0.6635
vn 0.5924 0.0459 -0.8043
vn 0.7013 0.0528 -0.7109
vn 0.4520 0.0075 -0.8920
vn 0.8169 -0.1428 0.5589
vn 0.8653 -0.0389 0.4997
vn 0.7600 -0.1551 0.6311
vn 0.8904 -0.2403 0.3865
vn 0.2233 -0.9640 0.1440
vn 0.3397 -0.9133 0.2247
vn 0.3153 -0.9311 0.1833
vn 0.2211 -0.9684 0.1157
vn 0.1741 -0.9818 0.0756
vn 0.6763 -0.7249 0.1307
vn 0.5941 -0.7955 0.1193
vn 0.2508 -0.1828 -0.9506
vn 0.3072 -0.1132 -0.9449
vn -0.0055 0.0954 -0.9954
vn 0.3365 0.0563 -0.9400
vn 0.1055 0.2211 -0.9695
vn 0.2333 -0.9554 -0.1811
vn 0.2345 -0.9559 -0.1770
vn 0.3654 -0.9164 -0.1631
vn 0.3411 -0.9247 -0.1691
vn 0.2328 -0.9519 -0.1994
vn 0.8568 0.2132 -0.4695
vn 0.9431 -0.0226 0.3317
vn 0.9804 0.0437 0.1920
vn -0.0000 -0.7319 -0.6814
vn -0.0074 -0.9965 0.0833
vn -0.1256 -0.6572 0.7432
vn -0.2341 -0.1044 0.9666
vn 0.7556 0.0211 -0.6547
vn 0.4596 0.0820 0.8843
vn -0.0826 0.0075 0.9966
vn 0.9808 0.1887 -0.0501
vn 0.9509 -0.1031 -0.2920
vn 0.9925 -0.1093 0.0551
vn 0.9921 -0.1098 0.0604
vn 0.8818 -0.1171 -0.4569
vn 0.7561 -0.0949 -0.6475
vn 0.6509 -0.1026 -0.7522
vn 0.8937 -0.1147 0.4338
vn 0.8127 -0.0890 0.5758
vn 0.5621 -0.0886 0.8223
vn 0.4716 -0.0595 0.8798
vn 0.0585 -0.9171 -0.3944
vn 0.0626 -0.9978 -0.0219
vn 0.0647 -0.9978 -0.0119
vn 0.0650 -0.9190 -0.3889
vn 0.0519 -0.7678 -0.6386
vn 0.0274 -0.6706 -0.7413
vn 0.0588 -0.8924 0.4475
vn 0.0440 -0.9238 0.3804
vn 0.0346 -0.5736 0.8184
vn 0.0249 -0.7032 0.7105
vn -0.0000 -0.0000 1.0000
vn 0.0000 0.0000 -1.0000
usemtl servicebot
s 1
f 1/1/1 2/2/2 3/3/3 4/4/4 5/5/5 6/6/5 7/7/6
f 8/8/7 9/9/8 10/10/9 11/11/10
f 12/12/11 13/13/12 14/14/13 15/15/14
f 16/16/15 17/17/16 18/18/17 19/19/18
f 20/20/19 21/21/20 22/22/21 23/23/22
f 24/24/23 25/25/24 26/26/25 27/27/26
f 18/18/17 28/28/27 29/29/28 13/13/12
f 30/30/29 31/31/30 32/32/31 33/33/32
f 34/34/33 35/35/34 33/33/32 32/32/31
f 2/36/35 28/28/27 36/37/36 3/38/37
f 8/39/38 37/40/39 38/41/40
f 24/42/41 39/43/42 1/1/1 7/7/6 40/44/43 41/45/44 25/46/45
f 19/19/18 18/18/17 13/13/12 12/12/11
f 7/47/46 6/48/47 42/49/48 20/50/19
f 39/51/49 43/52/50 29/29/28 1/53/51
f 19/19/18 12/12/11 44/54/52 45/55/53
f 12/12/11 15/15/14 46/56/54 44/54/52
f 15/15/14 9/9/8 47/57/55 46/56/54
f 8/39/38 38/41/40 48/58/56
f 49/59/57 50/60/58 51/61/59 52/62/60
f 19/19/18 45/55/53 53/63/61 16/16/15
f 46/56/54 47/57/55 54/64/62 44/54/52
f 45/55/53 44/54/52 54/64/62 53/63/61
f 55/65/63 56/66/64 57/67/65 58/68/66
f 59/69/67 60/70/68 61/71/69 62/72/70
f 35/73/71 34/74/72 63/75/73 62/76/74 61/77/75
f 64/78/76 65/79/77 63/75/73 34/74/72
f 41/80/78 66/81/79 26/26/25 25/25/24
f 67/82/80 68/83/81 69/84/82 11/11/10
f 56/85/83 55/86/84 70/87/85 11/88/86 69/89/87
f 49/59/57 52/62/60 48/58/56 38/41/40
f 50/60/58 64/78/76 51/61/59
f 64/78/76 50/60/58 65/79/77
f 8/39/38 11/88/86 70/87/85 37/40/39
f 57/67/65 22/22/21 71/90/88 58/68/66
f 72/91/89 73/92/90 60/70/68 59/69/67
f 9/9/8 8/8/7 48/93/91 47/57/55
f 47/57/55 48/93/91 52/94/92 54/64/62
f 52/94/92 51/95/93 53/63/61 54/64/62
f 51/95/93 64/96/94 16/16/15 53/63/61
f 34/34/33 32/32/31 17/17/16 16/16/15 64/96/94
f 32/32/31 31/31/30 36/37/36 17/17/16
f 9/9/8 15/15/14 14/14/13 10/10/9
f 10/10/9 14/14/13 43/52/50 27/27/26
f 40/97/95 7/98/46 20/20/19 23/23/22
f 67/82/80 10/10/9 27/27/26 26/26/25
f 28/28/27 2/36/35 1/53/51 29/29/28
f 5/99/96 4/100/97 31/31/30 30/30/29
f 28/28/27 18/18/17 17/17/16 36/37/36
f 42/49/48 60/70/68 73/92/90
f 14/14/13 13/13/12 29/29/28 43/52/50
f 66/81/79 68/83/81 67/82/80 26/26/25
f 31/31/30 4/100/97 3/38/37 36/37/36
f 39/51/49 24/24/23 27/27/26 43/52/50
f 56/66/64 69/84/82 68/83/81 57/67/65
f 6/48/47 5/99/96 30/30/29 42/49/48
f 57/67/65 68/83/81 66/81/79 23/23/22
f 60/70/68 33/33/32 35/35/34 61/71/69
f 42/49/48 30/30/29 33/33/32 60/70/68
f 23/23/22 66/81/79 41/80/78 40/97/95
f 22/22/21 21/21/20 74/101/98 71/90/88
f 74/102/98 21/103/20 73/92/90 72/91/89
f 73/92/90 21/103/20 20/50/19 42/49/48
f 22/22/21 57/67/65 23/23/22
f 10/10/9 67/82/80 11/11/10
f 50/104/99 49/105/100 75/106/101 76/107/102
f 65/108/103 50/104/99 76/107/102 77/109/104
f 49/105/100 38/110/105 78/111/106 75/106/101
f 38/110/105 37/112/107 79/113/108 78/111/106
f 76/114/109 75/115/110 74/116/111 72/117/112
f 77/118/113 76/114/109 72/117/112 59/119/114
f 75/115/110 78/120/115 71/121/116 74/116/111
f 78/120/115 79/122/117 58/123/118 71/121/116
f 55/124/119 58/123/119 79/122/119 70/125/119
f 79/122/119 37/126/119 70/125/119
f 62/127/120 63/128/120 77/118/120 59/119/120
f 65/129/120 77/118/120 63/128/120
