# Blender v2.79 (sub 2) OBJ File: ''
# www.blender.org
mtllib Hand_Right.mtl
o Hand_Right
v -0.000002 -0.000413 -0.041058
v -0.000002 -0.019686 -0.041058
v -0.017919 -0.019686 -0.035799
v -0.017919 -0.000413 -0.035799
v -0.031036 -0.019686 -0.021431
v -0.031036 -0.000413 -0.021431
v -0.035837 -0.019686 -0.001804
v -0.035837 -0.000413 -0.001804
v -0.031036 -0.019686 0.017823
v -0.031036 -0.000413 0.017823
v -0.017919 -0.019686 0.032191
v -0.017919 -0.000413 0.032191
v -0.000002 -0.019686 0.037450
v -0.000002 -0.000413 0.037450
v -0.022484 -0.105591 -0.008614
v -0.026479 -0.108785 -0.003222
v -0.033380 -0.084803 -0.000273
v -0.028343 -0.084496 -0.008614
v -0.019849 -0.051564 0.029709
v -0.000002 -0.051564 0.032642
v -0.030088 -0.030920 -0.014045
v -0.029140 -0.051500 -0.010092
v -0.034319 -0.051564 0.003196
v -0.014277 -0.113840 -0.008616
v -0.015979 -0.118070 -0.001058
v -0.026479 -0.108785 0.009159
v -0.015979 -0.118070 0.012323
v -0.019762 -0.091821 0.022100
v -0.033380 -0.084803 0.015918
v -0.034319 -0.051564 0.021668
v -0.000002 -0.121717 -0.001058
v -0.000002 -0.121717 0.012323
v -0.000002 -0.091752 -0.008616
v -0.000002 -0.117487 -0.008616
v -0.000002 -0.051500 -0.010094
v -0.000002 -0.093790 0.025032
v -0.000002 -0.021264 -0.018012
v -0.000002 -0.031710 -0.012337
v 0.017916 -0.000413 -0.035799
v 0.017916 -0.019686 -0.035799
v 0.031032 -0.000413 -0.021431
v 0.031032 -0.019686 -0.021431
v 0.035833 -0.000413 -0.001804
v 0.035833 -0.019686 -0.001804
v 0.031032 -0.000413 0.017823
v 0.031032 -0.019686 0.017823
v 0.017916 -0.000413 0.032191
v 0.017916 -0.019686 0.032191
v 0.022480 -0.105591 -0.008614
v 0.028339 -0.084495 -0.008614
v 0.033376 -0.084803 -0.000273
v 0.026476 -0.108785 -0.003222
v 0.019846 -0.051564 0.029709
v 0.030084 -0.030920 -0.014045
v 0.034315 -0.051564 0.003196
v 0.029136 -0.051500 -0.010092
v 0.015975 -0.118070 -0.001058
v 0.014273 -0.113840 -0.008616
v 0.026476 -0.108785 0.009159
v 0.033376 -0.084803 0.015918
v 0.019758 -0.091821 0.022100
v 0.015975 -0.118070 0.012323
v 0.034315 -0.051564 0.021667
vt 0.772900 0.380600
vt 0.735300 0.380600
vt 0.735300 0.399000
vt 0.772900 0.399000
vt 0.735300 0.417300
vt 0.772900 0.417300
vt 0.735300 0.435700
vt 0.772900 0.435700
vt 0.735300 0.454100
vt 0.772900 0.454100
vt 0.735300 0.472100
vt 0.772900 0.472100
vt 0.735300 0.489900
vt 0.772900 0.489900
vt 0.731800 0.866400
vt 0.735300 0.861600
vt 0.717900 0.853800
vt 0.716800 0.861300
vt 0.713000 0.472500
vt 0.713900 0.489900
vt 0.672700 0.846700
vt 0.667200 0.859800
vt 0.677000 0.859200
vt 0.692800 0.860000
vt 0.694700 0.849000
vt 0.737500 0.873300
vt 0.743800 0.870500
vt 0.669500 0.467700
vt 0.665600 0.477500
vt 0.684100 0.474000
vt 0.686900 0.461400
vt 0.710900 0.458600
vt 0.656000 0.473500
vt 0.652900 0.489900
vt 0.663500 0.489900
vt 0.708100 0.443100
vt 0.680700 0.449800
vt 0.662000 0.460900
vt 0.721800 0.885200
vt 0.740100 0.885200
vt 0.692800 0.885200
vt 0.683900 0.489900
vt 0.747000 0.885200
vt 0.669800 0.885200
vt 0.678300 0.885200
vt 0.772900 0.599100
vt 0.772900 0.580700
vt 0.735300 0.580700
vt 0.735300 0.599100
vt 0.772900 0.562400
vt 0.735300 0.562400
vt 0.772900 0.544000
vt 0.735300 0.544000
vt 0.772900 0.525600
vt 0.735300 0.525600
vt 0.772900 0.507600
vt 0.735300 0.507600
vt 0.731800 0.904000
vt 0.716800 0.909100
vt 0.717900 0.916600
vt 0.735300 0.908800
vt 0.713000 0.507200
vt 0.677000 0.911200
vt 0.667200 0.910600
vt 0.672700 0.923700
vt 0.694700 0.921400
vt 0.692800 0.910400
vt 0.743800 0.899900
vt 0.737500 0.897100
vt 0.669500 0.512000
vt 0.686900 0.518300
vt 0.684100 0.505700
vt 0.665600 0.502200
vt 0.710900 0.521100
vt 0.656000 0.506200
vt 0.708100 0.536600
vt 0.680700 0.529900
vt 0.662000 0.518800
vn -0.0000 0.0000 -1.0000
vn -0.5297 0.0000 -0.8482
vn -0.7385 0.0000 -0.6742
vn -0.9714 0.0000 -0.2376
vn -0.9672 -0.0923 -0.2366
vn -0.9588 -0.0830 -0.2717
vn -0.9714 0.0000 0.2376
vn -0.9714 -0.0043 0.2376
vn -0.9800 0.0142 0.1985
vn -0.7385 0.0000 0.6742
vn -0.7049 0.0209 0.7090
vn -0.5121 -0.0342 0.8583
vn -0.5297 0.0000 0.8482
vn -0.0000 -0.0738 0.9973
vn -0.0000 0.0000 1.0000
vn -0.6627 -0.3931 -0.6374
vn -0.7767 -0.5064 -0.3745
vn -0.8531 -0.1122 -0.5095
vn -0.8455 -0.1391 -0.5156
vn -0.3491 -0.0775 0.9339
vn -0.0000 -0.1390 0.9903
vn -0.9416 -0.1580 -0.2973
vn -0.9261 -0.0540 -0.3735
vn -0.9308 -0.0441 -0.3630
vn -0.4305 -0.7465 -0.5074
vn -0.4370 -0.8609 -0.2607
vn -0.7768 -0.5064 -0.3745
vn -0.5432 -0.3626 0.7573
vn -0.2634 -0.3937 0.8807
vn -0.3513 -0.2835 0.8923
vn -0.5003 -0.2358 0.8331
vn -0.4858 -0.0091 0.8740
vn -0.4393 -0.8983 -0.0000
vn 0.0000 -1.0000 0.0000
vn -0.9989 0.0189 0.0421
vn -0.9867 -0.1624 0.0000
vn -0.9908 -0.1357 0.0000
vn -0.9993 0.0384 0.0000
vn -0.8472 -0.5312 -0.0000
vn -0.0037 -0.0254 -0.9997
vn 0.0000 -0.0154 -0.9999
vn -0.0003 -0.0001 -1.0000
vn 0.0000 -0.0917 -0.9958
vn -0.0001 -0.1186 -0.9929
vn 0.0000 -0.4142 0.9102
vn 0.0000 -0.2866 0.9580
vn 0.0000 -0.8726 -0.4884
vn -0.0000 -0.8660 -0.5001
vn 0.0430 -0.5297 -0.8471
vn 0.0000 -0.4774 -0.8787
vn 0.0000 -0.3055 -0.9522
vn 0.0278 -0.3739 -0.9271
vn 0.5297 -0.0000 -0.8482
vn 0.7386 0.0000 -0.6742
vn 0.9714 0.0000 -0.2376
vn 0.9588 -0.0830 -0.2717
vn 0.9672 -0.0923 -0.2366
vn 0.9714 0.0000 0.2376
vn 0.9800 0.0142 0.1985
vn 0.9714 -0.0043 0.2376
vn 0.7386 0.0000 0.6742
vn 0.5297 0.0000 0.8482
vn 0.5121 -0.0342 0.8583
vn 0.7049 0.0209 0.7090
vn 0.6627 -0.3931 -0.6374
vn 0.8454 -0.1391 -0.5156
vn 0.8531 -0.1122 -0.5095
vn 0.7768 -0.5064 -0.3745
vn 0.3491 -0.0775 0.9339
vn 0.9416 -0.1580 -0.2973
vn 0.9308 -0.0441 -0.3630
vn 0.9261 -0.0540 -0.3735
vn 0.4370 -0.8608 -0.2607
vn 0.4305 -0.7465 -0.5074
vn 0.5432 -0.3626 0.7573
vn 0.5003 -0.2358 0.8331
vn 0.3513 -0.2835 0.8923
vn 0.2634 -0.3937 0.8807
vn 0.4858 -0.0091 0.8740
vn 0.4393 -0.8983 -0.0000
vn 0.4370 -0.8609 -0.2607
vn 0.9989 0.0189 0.0421
vn 0.9993 0.0384 -0.0000
vn 0.9908 -0.1357 0.0000
vn 0.9867 -0.1624 0.0000
vn 0.8472 -0.5312 -0.0000
vn 0.7767 -0.5064 -0.3745
vn 0.0037 -0.0254 -0.9997
vn 0.0003 -0.0001 -1.0000
vn 0.0001 -0.1186 -0.9929
vn -0.0430 -0.5297 -0.8471
vn -0.0278 -0.3739 -0.9271
usemtl servicebot
s 1
f 1/1/1 2/2/1 3/3/2 4/4/2
f 4/4/2 3/3/2 5/5/3 6/6/3
f 6/6/4 5/5/5 7/7/6 8/8/4
f 8/8/7 7/7/8 9/9/9 10/10/7
f 10/10/10 9/9/11 11/11/12 12/12/13
f 12/12/13 11/11/12 13/13/14 14/14/15
f 15/15/16 16/16/17 17/17/18 18/18/19
f 11/11/12 19/19/20 20/20/21 13/13/14
f 7/21/6 5/22/5 21/23/22 22/24/23 23/25/24
f 15/15/16 24/26/25 25/27/26 16/16/27
f 26/28/28 27/29/29 28/30/30 29/31/31
f 9/9/11 30/32/32 19/19/20 11/11/12
f 27/29/33 25/33/26 31/34/34 32/35/34
f 23/36/35 17/37/36 29/31/37 30/32/38
f 9/9/9 7/7/8 23/36/35 30/32/38
f 26/28/39 16/38/27 25/33/26 27/29/33
f 24/26/1 18/18/40 33/39/41 34/40/1
f 22/24/23 18/18/19 17/17/18 23/25/24
f 18/18/40 24/26/1 15/15/42
f 29/31/31 28/30/30 19/19/20 30/32/32
f 26/28/39 29/31/37 17/37/36 16/38/27
f 35/41/43 33/39/41 18/18/40 22/24/44
f 27/29/29 32/35/45 36/42/46 28/30/30
f 24/26/25 34/40/47 31/43/48 25/27/26
f 5/22/49 37/44/50 38/45/51 21/23/52
f 28/30/30 36/42/46 20/20/21 19/19/20
f 21/23/52 38/45/51 35/41/43 22/24/44
f 1/46/1 39/47/53 40/48/53 2/49/1
f 39/47/53 41/50/54 42/51/54 40/48/53
f 41/50/55 43/52/55 44/53/56 42/51/57
f 43/52/58 45/54/58 46/55/59 44/53/60
f 45/54/61 47/56/62 48/57/63 46/55/64
f 47/56/62 14/14/15 13/13/14 48/57/63
f 49/58/65 50/59/66 51/60/67 52/61/68
f 48/57/63 13/13/14 20/20/21 53/62/69
f 54/63/70 42/64/57 44/65/56 55/66/71 56/67/72
f 49/58/65 52/61/68 57/68/73 58/69/74
f 59/70/75 60/71/76 61/72/77 62/73/78
f 46/55/64 48/57/63 53/62/69 63/74/79
f 62/73/80 32/35/34 31/34/34 57/75/81
f 55/76/82 63/74/83 60/71/84 51/77/85
f 46/55/59 63/74/83 55/76/82 44/53/60
f 59/70/86 62/73/80 57/75/81 52/78/87
f 58/69/1 34/40/1 33/39/41 50/59/88
f 56/67/72 55/66/71 51/60/67 50/59/66
f 50/59/88 49/58/89 58/69/1
f 60/71/76 63/74/79 53/62/69 61/72/77
f 59/70/86 52/78/68 51/77/85 60/71/84
f 35/41/43 56/67/90 50/59/88 33/39/41
f 62/73/78 61/72/77 36/42/46 32/35/45
f 58/69/74 57/68/81 31/43/48 34/40/47
f 42/64/91 54/63/92 38/45/51 37/44/50
f 61/72/77 53/62/69 20/20/21 36/42/46
f 54/63/92 56/67/90 35/41/43 38/45/51
