# Blender v2.79 (sub 2) OBJ File: ''
# www.blender.org
mtllib Hand_Left.mtl
o Hand_Left
v 0.000002 0.000371 -0.040861
v -0.017915 0.000371 -0.035602
v -0.017915 0.019328 -0.035602
v 0.000002 0.019328 -0.040861
v -0.031032 0.000371 -0.021234
v -0.031032 0.019328 -0.021234
v -0.035833 0.000371 -0.001607
v -0.035833 0.019328 -0.001607
v -0.031032 0.000371 0.018020
v -0.031032 0.019328 0.018020
v -0.017915 0.000371 0.032388
v -0.017915 0.019328 0.032388
v 0.000002 0.000371 0.037647
v 0.000002 0.019328 0.037647
v -0.022480 0.103824 -0.008417
v -0.028339 0.083075 -0.008417
v -0.033376 0.083377 -0.000076
v -0.026475 0.106966 -0.003025
v 0.000002 0.050683 0.032838
v -0.019845 0.050683 0.029906
v -0.030084 0.030378 -0.013848
v -0.034315 0.050683 0.003393
v -0.029136 0.050620 -0.009895
v -0.015975 0.116099 -0.000861
v -0.014273 0.111939 -0.008419
v -0.026475 0.106966 0.009356
v -0.033376 0.083377 0.016115
v -0.019758 0.090280 0.022297
v -0.015975 0.116099 0.012520
v -0.034315 0.050683 0.021864
v 0.000002 0.119686 0.012520
v 0.000002 0.119686 -0.000861
v 0.000002 0.115526 -0.008419
v 0.000002 0.090212 -0.008419
v 0.000002 0.050620 -0.009897
v 0.000002 0.092217 0.025229
v 0.000002 0.031154 -0.012140
v 0.000002 0.020880 -0.017815
v 0.017920 0.019328 -0.035602
v 0.017919 0.000371 -0.035602
v 0.031036 0.019327 -0.021234
v 0.031036 0.000371 -0.021234
v 0.035837 0.019327 -0.001607
v 0.035837 0.000371 -0.001607
v 0.031036 0.019327 0.018020
v 0.031036 0.000371 0.018020
v 0.017920 0.019328 0.032388
v 0.017920 0.000371 0.032388
v 0.022484 0.103824 -0.008417
v 0.026480 0.106966 -0.003025
v 0.033380 0.083377 -0.000076
v 0.028343 0.083075 -0.008417
v 0.019850 0.050683 0.029906
v 0.030088 0.030378 -0.013848
v 0.029140 0.050620 -0.009895
v 0.034319 0.050683 0.003393
v 0.014277 0.111939 -0.008419
v 0.015979 0.116099 -0.000861
v 0.026480 0.106966 0.009356
v 0.015979 0.116099 0.012520
v 0.019762 0.090280 0.022297
v 0.033380 0.083377 0.016115
v 0.034319 0.050683 0.021864
vt 0.772900 0.380600
vt 0.772900 0.399000
vt 0.735300 0.399000
vt 0.735300 0.380600
vt 0.772900 0.417300
vt 0.735300 0.417300
vt 0.772900 0.435700
vt 0.735300 0.435700
vt 0.772900 0.454100
vt 0.735300 0.454100
vt 0.772900 0.472100
vt 0.735300 0.472100
vt 0.772900 0.489900
vt 0.735300 0.489900
vt 0.731800 0.866400
vt 0.716800 0.861300
vt 0.717900 0.853800
vt 0.735300 0.861600
vt 0.713900 0.489900
vt 0.713000 0.472500
vt 0.677000 0.859200
vt 0.667200 0.859800
vt 0.672700 0.846700
vt 0.694700 0.849000
vt 0.692800 0.860000
vt 0.743800 0.870500
vt 0.737500 0.873300
vt 0.669500 0.467700
vt 0.686900 0.461400
vt 0.684100 0.474000
vt 0.665600 0.477500
vt 0.710900 0.458600
vt 0.663500 0.489900
vt 0.652900 0.489900
vt 0.656000 0.473500
vt 0.708100 0.443100
vt 0.680700 0.449800
vt 0.662000 0.460900
vt 0.740100 0.885200
vt 0.721800 0.885200
vt 0.692800 0.885200
vt 0.683900 0.489900
vt 0.747000 0.885200
vt 0.678300 0.885200
vt 0.669800 0.885200
vt 0.772900 0.599100
vt 0.735300 0.599100
vt 0.735300 0.580700
vt 0.772900 0.580700
vt 0.735300 0.562400
vt 0.772900 0.562400
vt 0.735300 0.544000
vt 0.772900 0.544000
vt 0.735300 0.525600
vt 0.772900 0.525600
vt 0.735300 0.507600
vt 0.772900 0.507600
vt 0.731800 0.904000
vt 0.735300 0.908800
vt 0.717900 0.916600
vt 0.716800 0.909100
vt 0.713000 0.507200
vt 0.672700 0.923700
vt 0.667200 0.910600
vt 0.677000 0.911200
vt 0.692800 0.910400
vt 0.694700 0.921400
vt 0.737500 0.897100
vt 0.743800 0.899900
vt 0.669500 0.512000
vt 0.665600 0.502200
vt 0.684100 0.505700
vt 0.686900 0.518300
vt 0.710900 0.521100
vt 0.656000 0.506200
vt 0.708100 0.536600
vt 0.680700 0.529900
vt 0.662000 0.518800
vn -0.0000 -0.0000 -1.0000
vn -0.5297 0.0000 -0.8482
vn -0.7385 0.0000 -0.6742
vn -0.9714 0.0000 -0.2376
vn -0.9586 0.0840 -0.2720
vn -0.9671 0.0934 -0.2366
vn -0.9714 0.0000 0.2376
vn -0.9801 -0.0147 0.1980
vn -0.9714 0.0043 0.2376
vn -0.7385 0.0000 0.6742
vn -0.5297 0.0000 0.8482
vn -0.5118 0.0347 0.8584
vn -0.7044 -0.0216 0.7094
vn -0.0000 0.0000 1.0000
vn -0.0000 0.0750 0.9972
vn -0.6608 0.3995 -0.6354
vn -0.8452 0.1414 -0.5155
vn -0.8531 0.1136 -0.5092
vn -0.7745 0.5106 -0.3734
vn -0.0000 0.1414 0.9899
vn -0.3495 0.0789 0.9336
vn -0.9413 0.1610 -0.2968
vn -0.9307 0.0449 -0.3630
vn -0.9259 0.0550 -0.3736
vn -0.4325 0.8639 -0.2582
vn -0.4263 0.7520 -0.5027
vn -0.5419 0.3679 0.7556
vn -0.4999 0.2398 0.8322
vn -0.3508 0.2875 0.8912
vn -0.2639 0.3990 0.8781
vn -0.7044 -0.0216 0.7095
vn -0.4858 0.0094 0.8740
vn -0.4341 0.9009 -0.0000
vn 0.0000 1.0000 -0.0000
vn -0.9989 -0.0190 0.0426
vn -0.9992 -0.0390 -0.0000
vn -0.9905 0.1375 0.0000
vn -0.9863 0.1651 0.0000
vn -0.8440 0.5364 -0.0000
vn -0.0000 0.0157 -0.9999
vn -0.0037 0.0258 -0.9997
vn -0.0037 0.0259 -0.9997
vn -0.0003 0.0001 -1.0000
vn 0.0000 0.0930 -0.9957
vn -0.0001 0.1205 -0.9927
vn -0.0000 0.2908 0.9568
vn -0.0000 0.4199 0.9076
vn 0.0000 0.8695 -0.4939
vn 0.0000 0.8760 -0.4823
vn 0.0427 0.5362 -0.8430
vn 0.0276 0.3790 -0.9250
vn 0.0000 0.3097 -0.9508
vn 0.0000 0.4835 -0.8753
vn 0.5297 -0.0000 -0.8482
vn 0.7385 -0.0000 -0.6742
vn 0.9714 0.0000 -0.2376
vn 0.9671 0.0934 -0.2366
vn 0.9586 0.0840 -0.2720
vn 0.9714 0.0000 0.2376
vn 0.9714 0.0043 0.2376
vn 0.9801 -0.0147 0.1980
vn 0.7386 0.0000 0.6742
vn 0.7044 -0.0216 0.7094
vn 0.5118 0.0347 0.8584
vn 0.5297 -0.0000 0.8482
vn 0.6608 0.3995 -0.6354
vn 0.7745 0.5106 -0.3734
vn 0.8531 0.1136 -0.5092
vn 0.8452 0.1414 -0.5155
vn 0.3495 0.0789 0.9336
vn 0.9413 0.1610 -0.2968
vn 0.9259 0.0550 -0.3736
vn 0.9307 0.0449 -0.3630
vn 0.4263 0.7520 -0.5027
vn 0.4325 0.8639 -0.2582
vn 0.5419 0.3679 0.7556
vn 0.2640 0.3990 0.8781
vn 0.3508 0.2875 0.8912
vn 0.4999 0.2398 0.8322
vn 0.4858 0.0094 0.8740
vn 0.4341 0.9009 -0.0000
vn 0.9989 -0.0190 0.0426
vn 0.9863 0.1651 0.0000
vn 0.9905 0.1375 0.0000
vn 0.9992 -0.0390 -0.0000
vn 0.8440 0.5364 -0.0000
vn 0.0037 0.0259 -0.9997
vn 0.0003 0.0001 -1.0000
vn 0.0001 0.1205 -0.9927
vn -0.0427 0.5362 -0.8430
vn -0.0276 0.3790 -0.9250
usemtl servicebot
s 1
f 1/1/1 2/2/2 3/3/2 4/4/1
f 2/2/2 5/5/3 6/6/3 3/3/2
f 5/5/4 7/7/4 8/8/5 6/6/6
f 7/7/7 9/9/7 10/10/8 8/8/9
f 9/9/10 11/11/11 12/12/12 10/10/13
f 11/11/11 13/13/14 14/14/15 12/12/12
f 15/15/16 16/16/17 17/17/18 18/18/19
f 12/12/12 14/14/15 19/19/20 20/20/21
f 21/21/22 6/22/6 8/23/5 22/24/23 23/25/24
f 15/15/16 18/18/19 24/26/25 25/27/26
f 26/28/27 27/29/28 28/30/29 29/31/30
f 10/10/31 12/12/12 20/20/21 30/32/32
f 29/31/33 31/33/34 32/34/34 24/35/25
f 22/36/35 30/32/36 27/29/37 17/37/38
f 10/10/8 30/32/36 22/36/35 8/8/9
f 26/28/39 29/31/33 24/35/25 18/38/19
f 25/27/1 33/39/1 34/40/40 16/16/41
f 23/25/24 22/24/23 17/17/18 16/16/17
f 16/16/42 15/15/43 25/27/1
f 27/29/28 30/32/32 20/20/21 28/30/29
f 26/28/39 18/38/19 17/37/38 27/29/37
f 35/41/44 23/25/45 16/16/41 34/40/40
f 29/31/30 28/30/29 36/42/46 31/33/47
f 25/27/26 24/26/25 32/43/48 33/39/49
f 6/22/50 21/21/51 37/44/52 38/45/53
f 28/30/29 20/20/21 19/19/20 36/42/46
f 21/21/51 23/25/45 35/41/44 37/44/52
f 1/46/1 4/47/1 39/48/54 40/49/54
f 40/49/54 39/48/54 41/50/55 42/51/55
f 42/51/56 41/50/57 43/52/58 44/53/56
f 44/53/59 43/52/60 45/54/61 46/55/59
f 46/55/62 45/54/63 47/56/64 48/57/65
f 48/57/65 47/56/64 14/14/15 13/13/14
f 49/58/66 50/59/67 51/60/68 52/61/69
f 47/56/64 53/62/70 19/19/20 14/14/15
f 43/63/58 41/64/57 54/65/71 55/66/72 56/67/73
f 49/58/66 57/68/74 58/69/75 50/59/67
f 59/70/76 60/71/77 61/72/78 62/73/79
f 45/54/63 63/74/80 53/62/70 47/56/64
f 60/71/81 58/75/75 32/34/34 31/33/34
f 56/76/82 51/77/83 62/73/84 63/74/85
f 45/54/61 43/52/60 56/76/82 63/74/85
f 59/70/86 50/78/67 58/75/75 60/71/81
f 57/68/1 52/61/87 34/40/40 33/39/1
f 55/66/72 52/61/69 51/60/68 56/67/73
f 52/61/87 57/68/1 49/58/88
f 62/73/79 61/72/78 53/62/70 63/74/80
f 59/70/86 62/73/84 51/77/83 50/78/67
f 35/41/44 34/40/40 52/61/87 55/66/89
f 60/71/77 31/33/47 36/42/46 61/72/78
f 57/68/74 33/39/49 32/43/48 58/69/75
f 41/64/90 38/45/53 37/44/52 54/65/91
f 61/72/78 36/42/46 19/19/20 53/62/70
f 54/65/91 37/44/52 35/41/44 55/66/89
