# Blender v2.79 (sub 2) OBJ File: ''
# www.blender.org
mtllib Pelvis.mtl
o Pelvis
v 0.075991 0.000000 -0.098372
v 0.073101 0.029191 -0.096353
v 0.084652 0.029191 -0.053247
v 0.087988 0.000000 -0.053597
v 0.043214 0.000000 -0.131149
v 0.041545 0.029191 -0.127909
v -0.001561 0.000000 -0.143147
v -0.001561 0.029191 -0.139459
v -0.046336 0.000000 -0.131149
v -0.044667 0.029191 -0.127909
v -0.079113 0.000000 -0.098372
v -0.076223 0.029191 -0.096353
v -0.091110 0.000000 -0.053597
v -0.087774 0.029191 -0.053247
v 0.084652 0.029191 0.040106
v 0.087988 0.000000 0.043368
v 0.073385 0.060355 -0.051612
v 0.073385 0.042279 -0.051612
v 0.063344 0.042279 -0.089085
v 0.063344 0.060355 -0.089085
v 0.035912 0.042279 -0.116517
v 0.035912 0.060355 -0.116517
v -0.001561 0.042279 -0.126558
v -0.001561 0.060355 -0.126558
v -0.039034 0.042279 -0.116517
v -0.039034 0.060355 -0.116517
v -0.066466 0.042279 -0.089085
v -0.066466 0.060355 -0.089085
v -0.076507 0.042279 -0.051612
v -0.076507 0.060355 -0.051612
v -0.076507 0.042279 0.029540
v -0.076507 0.060355 0.029540
v 0.073385 0.060355 0.029540
v 0.073385 0.042279 0.029540
v -0.087774 0.029191 0.040106
v -0.091110 0.000000 0.043368
v 0.084652 -0.029191 -0.053247
v 0.073101 -0.029191 -0.096353
v 0.041545 -0.029191 -0.127909
v -0.001561 -0.029191 -0.139459
v -0.044667 -0.029191 -0.127909
v -0.076223 -0.029191 -0.096353
v -0.087774 -0.029191 -0.053247
v 0.084652 -0.029191 0.040106
v 0.073385 -0.060355 -0.051612
v 0.063344 -0.060355 -0.089085
v 0.063344 -0.042279 -0.089085
v 0.073385 -0.042279 -0.051612
v 0.035912 -0.060355 -0.116517
v 0.035912 -0.042279 -0.116517
v -0.001561 -0.060355 -0.126558
v -0.001561 -0.042279 -0.126558
v -0.039034 -0.060355 -0.116517
v -0.039034 -0.042279 -0.116517
v -0.066466 -0.060355 -0.089085
v -0.066466 -0.042279 -0.089085
v -0.076507 -0.060355 -0.051612
v -0.076507 -0.042279 -0.051612
v -0.076507 -0.060355 0.029540
v -0.076507 -0.042279 0.029540
v 0.073385 -0.060355 0.029540
v 0.073385 -0.042279 0.029540
v -0.087774 -0.029191 0.040106
v -0.001561 0.060355 0.030954
v -0.001561 -0.060355 0.030954
vt 0.350000 0.472100
vt 0.350000 0.472100
vt 0.350100 0.472100
vt 0.350100 0.472100
vt 0.350100 0.472100
vt 0.350200 0.472100
vt 0.350300 0.472100
vt 0.350300 0.472100
vt 0.350400 0.472100
vt 0.349800 0.472100
vt 0.350000 0.472100
vt 0.350000 0.472100
vt 0.350100 0.472100
vt 0.350100 0.472100
vt 0.350100 0.472100
vt 0.350200 0.472100
vt 0.350300 0.472100
vt 0.350300 0.472100
vt 0.350400 0.472100
vt 0.349800 0.472100
vt 0.530400 0.034600
vt 0.530400 0.065000
vt 0.511600 0.065000
vt 0.511600 0.034600
vt 0.549200 0.034600
vt 0.549200 0.065000
vt 0.568000 0.034600
vt 0.568000 0.065000
vt 0.586800 0.034600
vt 0.586800 0.065000
vt 0.605600 0.034600
vt 0.605600 0.065000
vt 0.624400 0.034600
vt 0.624400 0.065000
vt 0.470000 0.065000
vt 0.468200 0.034600
vt 0.511600 0.100800
vt 0.511600 0.080200
vt 0.530400 0.080200
vt 0.530400 0.100800
vt 0.549200 0.080200
vt 0.549200 0.100800
vt 0.568000 0.080200
vt 0.568000 0.100800
vt 0.586800 0.080200
vt 0.586800 0.100800
vt 0.605600 0.080200
vt 0.605600 0.100800
vt 0.624400 0.080200
vt 0.624400 0.100800
vt 0.661000 0.080200
vt 0.660600 0.100800
vt 0.475400 0.100800
vt 0.475100 0.080200
vt 0.666000 0.065000
vt 0.667800 0.034600
vt 0.511600 0.065000
vt 0.530400 0.065000
vt 0.549200 0.065000
vt 0.568000 0.065000
vt 0.586800 0.065000
vt 0.605600 0.065000
vt 0.624400 0.065000
vt 0.470000 0.065000
vt 0.511600 0.100800
vt 0.530400 0.100800
vt 0.530400 0.080200
vt 0.511600 0.080200
vt 0.549200 0.100800
vt 0.549200 0.080200
vt 0.568000 0.100800
vt 0.568000 0.080200
vt 0.586800 0.100800
vt 0.586800 0.080200
vt 0.605600 0.100800
vt 0.605600 0.080200
vt 0.624400 0.100800
vt 0.624400 0.080200
vt 0.660600 0.100800
vt 0.661000 0.080200
vt 0.475400 0.100800
vt 0.475100 0.080200
vt 0.666000 0.065000
vn 0.0000 1.0000 0.0000
vn -0.0000 -1.0000 0.0000
vn 0.8652 -0.0000 -0.5014
vn 0.8607 0.1194 -0.4949
vn 0.9849 0.1141 -0.1299
vn 0.9915 0.0000 -0.1303
vn 0.4992 -0.0000 -0.8665
vn 0.4970 0.1238 -0.8589
vn -0.0000 -0.0000 -1.0000
vn 0.0000 0.1253 -0.9921
vn -0.4992 -0.0000 -0.8665
vn -0.4970 0.1238 -0.8589
vn -0.8652 -0.0000 -0.5014
vn -0.8607 0.1194 -0.4949
vn -0.9915 -0.0000 -0.1303
vn -0.9849 0.1141 -0.1299
vn 0.9935 0.1135 0.0000
vn 1.0000 -0.0000 0.0000
vn 0.9914 0.0000 -0.1305
vn 0.8660 0.0000 -0.5000
vn 0.5000 -0.0000 -0.8660
vn -0.5000 0.0000 -0.8660
vn -0.8660 0.0000 -0.5000
vn -0.9914 0.0000 -0.1305
vn -1.0000 0.0000 0.0000
vn 0.7480 0.6563 -0.0990
vn 0.6318 0.6788 -0.3743
vn 0.6425 0.6776 -0.3577
vn 0.7481 0.6563 -0.0979
vn 0.3551 0.6960 -0.6241
vn 0.3647 0.6957 -0.6189
vn 0.0000 0.7020 -0.7122
vn -0.3551 0.6960 -0.6241
vn -0.3647 0.6957 -0.6189
vn -0.6318 0.6788 -0.3743
vn -0.6425 0.6776 -0.3577
vn -0.7480 0.6563 -0.0990
vn -0.7481 0.6563 -0.0979
vn -0.7579 0.6524 0.0000
vn 0.7579 0.6524 0.0000
vn -0.9935 0.1135 0.0000
vn 0.9849 -0.1141 -0.1299
vn 0.8607 -0.1194 -0.4949
vn 0.4970 -0.1238 -0.8589
vn -0.0000 -0.1253 -0.9921
vn -0.4970 -0.1238 -0.8589
vn -0.8607 -0.1194 -0.4949
vn -0.9849 -0.1141 -0.1299
vn 0.9935 -0.1135 0.0000
vn 0.7480 -0.6563 -0.0990
vn 0.7481 -0.6563 -0.0979
vn 0.6425 -0.6776 -0.3577
vn 0.6318 -0.6788 -0.3743
vn 0.3647 -0.6957 -0.6189
vn 0.3551 -0.6960 -0.6241
vn 0.0000 -0.7020 -0.7122
vn -0.3647 -0.6957 -0.6189
vn -0.3551 -0.6960 -0.6241
vn -0.6425 -0.6776 -0.3577
vn -0.6318 -0.6788 -0.3743
vn -0.7481 -0.6563 -0.0979
vn -0.7480 -0.6563 -0.0990
vn -0.7579 -0.6524 0.0000
vn 0.7579 -0.6524 0.0000
vn -0.9935 -0.1135 0.0000
usemtl servicebot
s off
f 17/1/1 20/2/1 64/3/1
f 20/2/1 22/4/1 64/3/1
f 22/4/1 24/5/1 64/3/1
f 24/5/1 26/6/1 64/3/1
f 26/6/1 28/7/1 64/3/1
f 28/7/1 30/8/1 64/3/1
f 30/8/1 32/9/1 64/3/1
f 33/10/1 17/1/1 64/3/1
f 46/11/2 45/12/2 65/13/2
f 49/14/2 46/11/2 65/13/2
f 51/15/2 49/14/2 65/13/2
f 53/16/2 51/15/2 65/13/2
f 55/17/2 53/16/2 65/13/2
f 57/18/2 55/17/2 65/13/2
f 59/19/2 57/18/2 65/13/2
f 45/12/2 61/20/2 65/13/2
s 1
f 1/21/3 2/22/4 3/23/5 4/24/6
f 5/25/7 6/26/8 2/22/4 1/21/3
f 7/27/9 8/28/10 6/26/8 5/25/7
f 9/29/11 10/30/12 8/28/10 7/27/9
f 11/31/13 12/32/14 10/30/12 9/29/11
f 13/33/15 14/34/16 12/32/14 11/31/13
f 4/24/6 3/23/5 15/35/17 16/36/18
f 17/37/19 18/38/19 19/39/20 20/40/20
f 20/40/20 19/39/20 21/41/21 22/42/21
f 22/42/21 21/41/21 23/43/9 24/44/9
f 24/44/9 23/43/9 25/45/22 26/46/22
f 26/46/22 25/45/22 27/47/23 28/48/23
f 28/48/23 27/47/23 29/49/24 30/50/24
f 30/50/24 29/49/24 31/51/25 32/52/25
f 33/53/18 34/54/18 18/38/19 17/37/19
f 3/23/26 2/22/27 19/39/28 18/38/29
f 2/22/27 6/26/30 21/41/31 19/39/28
f 6/26/30 8/28/32 23/43/32 21/41/31
f 8/28/32 10/30/33 25/45/34 23/43/32
f 10/30/33 12/32/35 27/47/36 25/45/34
f 12/32/35 14/34/37 29/49/38 27/47/36
f 14/34/37 35/55/39 31/51/39 29/49/38
f 15/35/40 3/23/26 18/38/29 34/54/40
f 14/34/16 13/33/15 36/56/25 35/55/41
f 1/21/3 4/24/6 37/57/42 38/58/43
f 5/25/7 1/21/3 38/58/43 39/59/44
f 7/27/9 5/25/7 39/59/44 40/60/45
f 9/29/11 7/27/9 40/60/45 41/61/46
f 11/31/13 9/29/11 41/61/46 42/62/47
f 13/33/15 11/31/13 42/62/47 43/63/48
f 4/24/6 16/36/18 44/64/49 37/57/42
f 45/65/19 46/66/20 47/67/20 48/68/19
f 46/66/20 49/69/21 50/70/21 47/67/20
f 49/69/21 51/71/9 52/72/9 50/70/21
f 51/71/9 53/73/22 54/74/22 52/72/9
f 53/73/22 55/75/23 56/76/23 54/74/22
f 55/75/23 57/77/24 58/78/24 56/76/23
f 57/77/24 59/79/25 60/80/25 58/78/24
f 61/81/18 45/65/19 48/68/19 62/82/18
f 37/57/50 48/68/51 47/67/52 38/58/53
f 38/58/53 47/67/52 50/70/54 39/59/55
f 39/59/55 50/70/54 52/72/56 40/60/56
f 40/60/56 52/72/56 54/74/57 41/61/58
f 41/61/58 54/74/57 56/76/59 42/62/60
f 42/62/60 56/76/59 58/78/61 43/63/62
f 43/63/62 58/78/61 60/80/63 63/83/63
f 44/64/64 62/82/64 48/68/51 37/57/50
f 43/63/48 63/83/65 36/56/25 13/33/15
