# Blender v2.79 (sub 2) OBJ File: ''
# www.blender.org
mtllib Shoulder_Right.mtl
o Shoulder_Right
v 0.068493 0.038135 0.023169
v 0.076251 -0.002537 0.027648
v 0.082320 -0.002537 -0.003073
v 0.073945 0.038135 -0.003073
v 0.052548 -0.002537 0.051352
v 0.000006 0.039234 0.072483
v 0.000006 -0.001438 0.081441
v 0.044612 -0.001438 0.069646
v 0.040073 0.039234 0.061888
v 0.074522 -0.002537 -0.036036
v 0.068428 0.030466 -0.032349
v 0.069154 0.038081 -0.024159
v 0.068493 -0.051184 0.023169
v 0.073945 -0.051184 -0.003073
v 0.039547 -0.051184 0.052115
v 0.000006 -0.050085 0.072483
v 0.037961 -0.049692 0.063460
v 0.069154 -0.051130 -0.024159
v 0.068428 -0.043516 -0.032349
v 0.061696 0.044350 -0.003073
v 0.057147 0.044350 0.016618
v 0.032996 0.044350 0.040769
v 0.067592 0.039862 0.034975
v 0.000006 0.044350 0.049609
v 0.000006 -0.057400 0.049609
v 0.032996 -0.057400 0.040769
v 0.057147 -0.057400 0.016618
v 0.061696 -0.057400 -0.003073
v 0.056443 -0.057400 -0.024039
v 0.055276 -0.045161 -0.037203
v 0.061701 -0.002537 -0.041171
v 0.055276 0.032112 -0.037203
v 0.056443 0.044350 -0.024039
v 0.051423 -0.000472 0.062810
v 0.032996 -0.038891 0.040769
v 0.057147 -0.038891 0.016618
v 0.061696 -0.038891 -0.003073
v 0.056443 -0.038892 -0.024039
v 0.056443 0.031183 -0.024039
v 0.000006 -0.038891 0.049609
v 0.019355 0.031183 -0.024039
v 0.000006 0.031183 -0.024039
v 0.000006 0.032112 -0.037203
v 0.000006 0.044350 -0.024039
v 0.020701 0.031183 0.030770
v 0.000006 0.031183 0.030770
v 0.019355 -0.038892 -0.024039
v 0.020701 -0.038892 0.030770
v 0.000006 -0.038892 0.030770
v -0.068481 0.038135 0.023169
v -0.073933 0.038135 -0.003073
v -0.082308 -0.002537 -0.003073
v -0.076239 -0.002537 0.027648
v -0.052535 -0.002537 0.051352
v -0.040061 0.039234 0.061888
v -0.044600 -0.001438 0.069646
v -0.074510 -0.002537 -0.036036
v -0.069142 0.038081 -0.024159
v -0.068416 0.030466 -0.032349
v -0.068481 -0.051184 0.023169
v -0.073933 -0.051184 -0.003073
v -0.039535 -0.051184 0.052115
v -0.037949 -0.049692 0.063460
v -0.068416 -0.043516 -0.032349
v -0.069142 -0.051130 -0.024159
v -0.061684 0.044350 -0.003073
v -0.057135 0.044350 0.016618
v -0.067580 0.039862 0.034975
v -0.032984 0.044350 0.040769
v -0.032984 -0.057400 0.040769
v -0.057135 -0.057400 0.016618
v -0.061684 -0.057400 -0.003073
v -0.056431 -0.057400 -0.024039
v -0.055264 -0.045161 -0.037203
v -0.061689 -0.002537 -0.041171
v -0.055264 0.032112 -0.037203
v -0.056431 0.044350 -0.024039
v -0.051411 -0.000472 0.062810
v -0.057135 -0.038891 0.016618
v -0.032984 -0.038891 0.040769
v -0.061684 -0.038891 -0.003073
v -0.056431 -0.038892 -0.024039
v -0.056431 0.031183 -0.024039
v -0.019343 0.031183 -0.024039
v -0.020689 0.031183 0.030770
v -0.019343 -0.038892 -0.024039
v -0.020689 -0.038892 0.030770
vt 0.015400 0.226500
vt 0.029400 0.234300
vt 0.028600 0.226800
vt 0.063400 0.256200
vt 0.065500 0.249500
vt 0.098400 0.264100
vt 0.103500 0.258200
vt 0.117200 0.258200
vt 0.755700 0.788300
vt 0.744600 0.788300
vt 0.744600 0.795400
vt 0.776300 0.795400
vt 0.777000 0.788300
vt 0.983100 0.131700
vt 0.983100 0.087100
vt 0.969500 0.087100
vt 0.969500 0.132700
vt 0.953700 0.136900
vt 0.928800 0.130200
vt 0.904000 0.087100
vt 0.910600 0.112000
vt 0.755700 0.751700
vt 0.744600 0.751700
vt 0.190600 0.231100
vt 0.131800 0.231100
vt 0.131800 0.261000
vt 0.190600 0.261000
vt 0.131800 0.312300
vt 0.190600 0.312300
vt 0.131800 0.327900
vt 0.190600 0.327900
vt 0.982100 0.193900
vt 0.967900 0.193900
vt 0.967900 0.209500
vt 0.975400 0.218800
vt 0.957200 0.237000
vt 0.916500 0.209500
vt 0.932300 0.243700
vt 0.916500 0.239500
vt 0.014700 0.357800
vt 0.027900 0.357700
vt 0.028900 0.350300
vt 0.065100 0.335300
vt 0.063000 0.328600
vt 0.103100 0.327000
vt 0.098100 0.321100
vt 0.116900 0.327100
vt 0.733500 0.788300
vt 0.712200 0.788300
vt 0.712800 0.795400
vt 0.983100 0.042600
vt 0.969500 0.041600
vt 0.953700 0.037400
vt 0.928800 0.044100
vt 0.910600 0.062300
vt 0.733500 0.751700
vt 0.190600 0.424800
vt 0.190600 0.394900
vt 0.131800 0.394900
vt 0.131800 0.424800
vt 0.190600 0.343500
vt 0.131800 0.343500
vt 0.975400 0.169100
vt 0.967900 0.178300
vt 0.957200 0.150900
vt 0.932300 0.144200
vt 0.916500 0.178300
vt 0.916500 0.148400
vt 0.065300 0.226200
vt 0.064900 0.194000
vt 0.028600 0.195200
vt 0.027400 0.292200
vt 0.063600 0.292400
vt 0.063900 0.261500
vt 0.028900 0.261600
vt 0.064600 0.169500
vt 0.033100 0.172900
vt 0.028000 0.179100
vt 0.102300 0.225600
vt 0.101200 0.194200
vt 0.099300 0.292600
vt 0.101400 0.178100
vt 0.095900 0.172100
vt 0.016900 0.195300
vt 0.011000 0.257500
vt 0.005900 0.292100
vt 0.120900 0.292700
vt 0.114400 0.224900
vt 0.112900 0.193900
vt 0.112900 0.173900
vt 0.101500 0.161500
vt 0.064400 0.158000
vt 0.027400 0.162300
vt 0.016600 0.175100
vt 0.833100 0.036200
vt 0.807300 0.036200
vt 0.807300 0.050200
vt 0.833100 0.050200
vt 0.858800 0.036200
vt 0.858800 0.050200
vt 0.875200 0.036200
vt 0.875200 0.050200
vt 0.875200 0.109000
vt 0.885100 0.109700
vt 0.885200 0.045500
vt 0.781600 0.036200
vt 0.781600 0.050200
vt 0.891100 0.077600
vt 0.027600 0.389300
vt 0.063900 0.390900
vt 0.064600 0.358700
vt 0.028600 0.322900
vt 0.063600 0.323300
vt 0.063300 0.415400
vt 0.026900 0.405400
vt 0.031900 0.411600
vt 0.101600 0.359600
vt 0.100200 0.391000
vt 0.094700 0.413100
vt 0.100200 0.407100
vt 0.015900 0.389100
vt 0.010600 0.326800
vt 0.113700 0.360500
vt 0.111900 0.391400
vt 0.111700 0.411400
vt 0.100200 0.423700
vt 0.063100 0.426800
vt 0.026100 0.422200
vt 0.015400 0.409300
vt 0.730100 0.036200
vt 0.730100 0.050200
vt 0.755800 0.050200
vt 0.755800 0.036200
vt 0.704300 0.036200
vt 0.704300 0.050200
vt 0.688000 0.036200
vt 0.688000 0.050200
vt 0.678000 0.109700
vt 0.688000 0.109000
vt 0.678000 0.045500
vt 0.672000 0.077600
vn 0.5161 0.8523 -0.0853
vn 0.9492 -0.2868 0.1294
vn 0.9545 -0.2559 0.1534
vn 0.4938 -0.8506 0.1809
vn -0.0000 -0.9975 -0.0704
vn 0.0000 0.7324 -0.6809
vn 0.0000 1.0000 -0.0000
vn 0.0000 -1.0000 0.0000
vn 0.0000 0.0000 -1.0000
vn -0.9997 0.0000 0.0246
vn 0.0000 -1.0000 0.0001
vn -0.5161 0.8523 -0.0853
vn -0.9492 -0.2868 0.1294
vn -0.9545 -0.2559 0.1533
vn -0.4938 -0.8506 0.1809
vn 0.9997 -0.0000 0.0246
vn 0.9107 0.2097 0.3560
vn 0.8816 0.0167 0.4718
vn 0.9997 0.0160 -0.0165
vn 0.9798 0.1998 -0.0113
vn 0.7064 -0.0439 0.7064
vn 0.0000 0.2151 0.9766
vn -0.0000 0.0168 0.9999
vn 0.5015 0.0101 0.8651
vn 0.4808 0.2162 0.8498
vn 0.9727 0.0151 -0.2315
vn 0.9401 0.2041 -0.2731
vn 0.9535 0.1936 -0.2312
vn 0.8670 -0.1790 0.4649
vn 0.9858 -0.1674 -0.0122
vn 0.6962 -0.1751 0.6962
vn -0.0000 -0.1698 0.9855
vn 0.2826 -0.1602 0.9458
vn 0.9649 -0.1442 -0.2196
vn 0.9618 -0.1591 -0.2229
vn 0.4499 0.8930 -0.0091
vn 0.3185 0.9391 0.1291
vn 0.4399 0.8927 0.0975
vn 0.4504 0.8928 -0.0070
vn 0.1233 0.9731 0.1946
vn 0.1015 0.9751 0.1972
vn 0.1358 0.9775 0.1617
vn 0.0000 0.9759 0.2183
vn 0.0000 0.9759 0.2180
vn 0.0000 -0.9523 0.3050
vn 0.2078 -0.9276 0.3106
vn 0.0818 -0.9491 0.3040
vn 0.0000 -0.9524 0.3047
vn 0.3800 -0.9022 0.2039
vn 0.3765 -0.9034 0.2051
vn 0.3117 -0.8976 0.3117
vn 0.4505 -0.8928 -0.0017
vn 0.4499 -0.8931 -0.0023
vn 0.4027 -0.8240 -0.3986
vn 0.4030 -0.8198 -0.4069
vn 0.3608 -0.4259 -0.8297
vn 0.3596 -0.4276 -0.8294
vn 0.3710 0.0159 -0.9285
vn 0.3707 0.0138 -0.9287
vn 0.3586 0.4440 -0.8212
vn 0.3596 0.4416 -0.8220
vn 0.4053 0.8236 -0.3968
vn 0.4015 0.8218 -0.4042
vn 0.7024 0.0712 0.7082
vn 0.6810 0.2109 0.7012
vn -0.8746 0.0000 -0.4849
vn -0.5000 0.0000 -0.8660
vn -1.0000 0.0000 0.0092
vn -0.9817 0.0000 0.1903
vn -0.9901 0.0000 0.1403
vn -0.9961 0.0000 0.0883
vn -0.9995 0.0000 -0.0311
vn -0.9997 0.0000 0.0231
vn -0.5255 0.0000 -0.8508
vn -0.9107 0.2097 0.3560
vn -0.9798 0.1998 -0.0113
vn -0.9997 0.0160 -0.0165
vn -0.8816 0.0167 0.4718
vn -0.7064 -0.0439 0.7064
vn -0.4808 0.2162 0.8498
vn -0.5015 0.0101 0.8651
vn -0.9727 0.0151 -0.2315
vn -0.9535 0.1936 -0.2312
vn -0.9401 0.2041 -0.2731
vn -0.8670 -0.1790 0.4650
vn -0.9858 -0.1674 -0.0122
vn -0.6962 -0.1751 0.6962
vn -0.2826 -0.1602 0.9458
vn -0.9618 -0.1591 -0.2229
vn -0.9649 -0.1442 -0.2196
vn -0.4499 0.8930 -0.0091
vn -0.4504 0.8928 -0.0070
vn -0.4399 0.8927 0.0975
vn -0.3185 0.9391 0.1291
vn -0.1358 0.9775 0.1617
vn -0.1015 0.9751 0.1972
vn -0.1233 0.9731 0.1946
vn -0.0818 -0.9491 0.3040
vn -0.2078 -0.9276 0.3106
vn -0.3117 -0.8976 0.3117
vn -0.3765 -0.9034 0.2051
vn -0.3800 -0.9022 0.2039
vn -0.4499 -0.8931 -0.0023
vn -0.4505 -0.8928 -0.0017
vn -0.4031 -0.8198 -0.4068
vn -0.4027 -0.8240 -0.3986
vn -0.3596 -0.4276 -0.8294
vn -0.3608 -0.4259 -0.8297
vn -0.3707 0.0138 -0.9287
vn -0.3710 0.0159 -0.9285
vn -0.3596 0.4416 -0.8220
vn -0.3586 0.4440 -0.8212
vn -0.4015 0.8218 -0.4042
vn -0.4052 0.8236 -0.3967
vn -0.6810 0.2109 0.7013
vn -0.7024 0.0712 0.7082
vn 0.8746 -0.0000 -0.4849
vn 0.5000 -0.0000 -0.8660
vn 1.0000 -0.0000 0.0092
vn 0.9817 -0.0000 0.1903
vn 0.9901 -0.0000 0.1403
vn 0.9995 -0.0000 -0.0311
vn 0.9961 -0.0000 0.0883
vn 0.9997 -0.0000 0.0231
vn 0.5255 -0.0000 -0.8508
usemtl servicebot
s off
f 21/1/1 23/2/1 1/3/1
f 1/3/2 23/2/2 34/4/2 5/5/2
f 5/5/3 34/4/3 17/6/3 15/7/3
f 15/7/4 17/6/4 26/8/4
f 41/9/5 42/10/5 43/11/5 32/12/5 39/13/5
f 32/14/6 43/15/6 44/16/6 33/17/6
f 33/17/7 44/16/7 20/18/7
f 20/18/7 44/16/7 21/19/7
f 21/19/7 44/16/7 24/20/7 22/21/7
f 42/10/8 41/9/8 45/22/8 46/23/8
f 39/24/9 38/25/9 47/26/9 41/27/9
f 41/27/10 47/26/10 48/28/10 45/29/10
f 45/29/9 48/28/9 49/30/9 46/31/9
f 40/32/11 49/33/11 48/34/11 35/35/11
f 35/35/8 48/34/8 36/36/8
f 36/36/8 48/34/8 47/37/8 37/38/8
f 38/39/8 37/38/8 47/37/8
f 67/40/12 50/41/12 68/42/12
f 50/41/13 54/43/13 78/44/13 68/42/13
f 54/43/14 62/45/14 63/46/14 78/44/14
f 62/45/15 70/47/15 63/46/15
f 43/11/5 42/10/5 84/48/5 83/49/5 76/50/5
f 76/51/6 77/52/6 44/16/6 43/15/6
f 77/52/7 66/53/7 44/16/7
f 66/53/7 67/54/7 44/16/7
f 67/54/7 69/55/7 24/20/7 44/16/7
f 42/10/8 46/23/8 85/56/8 84/48/8
f 83/57/9 84/58/9 86/59/9 82/60/9
f 84/58/16 85/61/16 87/62/16 86/59/16
f 85/61/9 46/31/9 49/30/9 87/62/9
f 40/32/11 80/63/11 87/64/11 49/33/11
f 80/63/8 79/65/8 87/64/8
f 79/65/8 81/66/8 86/67/8 87/64/8
f 82/68/8 86/67/8 81/66/8
s 1
f 1/3/17 2/69/18 3/70/19 4/71/20
f 1/3/17 5/5/21 2/69/18
f 6/72/22 7/73/23 8/74/24 9/75/25
f 4/71/20 3/70/19 10/76/26 11/77/27 12/78/28
f 13/79/29 14/80/30 3/70/19 2/69/18
f 15/7/31 13/79/29 2/69/18 5/5/21
f 16/81/32 17/6/33 8/74/24 7/73/23
f 14/80/30 18/82/34 19/83/35 10/76/26 3/70/19
f 20/84/36 21/1/37 1/3/38 4/71/39
f 21/1/37 22/85/40 9/75/41 23/2/42
f 22/85/40 24/86/43 6/72/44 9/75/41
f 25/87/45 26/8/46 17/6/47 16/81/48
f 26/8/46 27/88/49 13/79/50 15/7/51
f 27/88/49 28/89/52 14/80/53 13/79/50
f 28/89/52 29/90/54 18/82/55 14/80/53
f 29/90/54 30/91/56 19/83/57 18/82/55
f 30/91/56 31/92/58 10/76/59 19/83/57
f 31/92/58 32/93/60 11/77/61 10/76/59
f 32/93/60 33/94/62 12/78/63 11/77/61
f 33/94/62 20/84/36 4/71/39 12/78/63
f 9/75/25 8/74/24 34/4/64 23/2/65
f 34/4/64 8/74/24 17/6/33
f 27/95/66 26/96/67 35/97/67 36/98/66
f 28/99/68 27/95/66 36/98/66 37/100/68
f 29/101/69 28/99/68 37/100/68 38/102/70
f 38/102/70 39/103/71 32/104/72 30/105/73 29/101/69
f 26/96/67 25/106/9 40/107/9 35/97/67
f 30/105/73 32/104/72 31/108/74
f 50/41/75 51/109/76 52/110/77 53/111/78
f 50/41/75 53/111/78 54/43/79
f 6/72/22 55/112/80 56/113/81 7/73/23
f 57/114/82 52/110/77 51/109/76 58/115/83 59/116/84
f 60/117/85 53/111/78 52/110/77 61/118/86
f 62/45/87 54/43/79 53/111/78 60/117/85
f 16/81/32 7/73/23 56/113/81 63/46/88
f 64/119/89 65/120/90 61/118/86 52/110/77 57/114/82
f 66/121/91 51/109/92 50/41/93 67/40/94
f 67/40/94 68/42/95 55/112/96 69/122/97
f 69/122/97 55/112/96 6/72/44 24/86/43
f 25/87/45 16/81/48 63/46/98 70/47/99
f 70/47/99 62/45/100 60/117/101 71/123/102
f 71/123/102 60/117/101 61/118/103 72/124/104
f 72/124/104 61/118/103 65/120/105 73/125/106
f 73/125/106 65/120/105 64/119/107 74/126/108
f 74/126/108 64/119/107 57/114/109 75/127/110
f 75/127/110 57/114/109 59/116/111 76/128/112
f 76/128/112 59/116/111 58/115/113 77/129/114
f 77/129/114 58/115/113 51/109/92 66/121/91
f 55/112/80 68/42/115 78/44/116 56/113/81
f 78/44/116 63/46/88 56/113/81
f 71/130/117 79/131/117 80/132/118 70/133/118
f 72/134/119 81/135/119 79/131/117 71/130/117
f 73/136/120 82/137/121 81/135/119 72/134/119
f 76/138/122 83/139/123 82/137/121 73/136/120 74/140/124
f 70/133/118 80/132/118 40/107/9 25/106/9
f 74/140/124 75/141/125 76/138/122
