# Blender v2.79 (sub 2) OBJ File: ''
# www.blender.org
mtllib UpperArm_Left.mtl
o UpperArm_Left
v 0.017542 0.023146 0.045006
v 0.019755 0.072099 0.050676
v -0.019754 0.072099 0.050676
v -0.017542 0.023146 0.045006
v 0.037939 0.031324 0.038393
v 0.041742 0.072138 0.043090
v 0.028770 0.072099 0.050676
v 0.025556 0.023153 0.045006
v 0.037939 0.026800 -0.030794
v 0.044431 0.044922 -0.023027
v 0.044431 0.044922 0.023027
v 0.037939 0.026800 0.030794
v 0.050048 0.105593 0.028419
v 0.041545 0.105593 0.042693
v 0.049949 0.072215 0.028366
v 0.028421 0.105593 0.050046
v 0.017542 0.018623 0.036098
v 0.025556 0.018630 0.036098
v 0.019441 0.105593 0.050046
v -0.017540 -0.025872 0.028864
v -0.017540 -0.025872 -0.028863
v 0.017540 -0.025872 -0.028863
v 0.017540 -0.025872 0.028864
v 0.017541 0.018623 -0.036098
v 0.025556 0.018630 -0.036098
v 0.017540 -0.024169 0.032393
v -0.017540 -0.024169 0.032393
v 0.049949 0.072215 0.020668
v 0.050048 0.105593 0.019520
v 0.037939 0.031324 -0.038392
v 0.025556 0.023153 -0.045005
v 0.028770 0.072099 -0.050675
v 0.041741 0.072138 -0.043090
v 0.050048 0.105593 -0.028418
v 0.049949 0.072215 -0.028365
v 0.041545 0.105593 -0.042692
v 0.028421 0.105593 -0.050045
v 0.017541 0.023146 -0.045005
v 0.019754 0.072099 -0.050675
v 0.019441 0.105593 -0.050045
v 0.017540 -0.024169 -0.032392
v 0.017540 -0.011180 -0.043544
v 0.017540 -0.007069 -0.045005
v 0.017541 -0.007069 0.045006
v 0.017540 -0.011180 0.043544
v 0.050048 0.105593 -0.019520
v 0.049949 0.072215 -0.020667
v -0.017540 -0.007069 0.045006
v -0.017540 -0.011180 0.043544
v -0.037939 0.031324 0.038393
v -0.025556 0.023153 0.045006
v -0.028770 0.072099 0.050676
v -0.041741 0.072138 0.043090
v -0.044431 0.044922 0.023028
v -0.044431 0.044922 -0.023027
v -0.037939 0.026800 -0.030794
v -0.037939 0.026800 0.030794
v -0.019441 0.105593 0.050046
v -0.050048 0.105593 0.028419
v -0.049949 0.072215 0.028366
v -0.041545 0.105593 0.042693
v -0.028421 0.105593 0.050046
v -0.025556 0.018630 0.036099
v -0.017542 0.018623 0.036099
v -0.025556 0.018630 -0.036098
v -0.017542 0.018623 -0.036098
v -0.050048 0.105593 0.019520
v -0.049949 0.072215 0.020668
v -0.017542 0.023146 -0.045005
v -0.019755 0.072099 -0.050675
v -0.037939 0.031324 -0.038392
v -0.041742 0.072139 -0.043090
v -0.028770 0.072099 -0.050675
v -0.025556 0.023153 -0.045005
v -0.019441 0.105593 -0.050045
v -0.050048 0.105593 -0.028418
v -0.041545 0.105593 -0.042692
v -0.049949 0.072215 -0.028365
v -0.028421 0.105593 -0.050045
v -0.017541 -0.007069 -0.045005
v -0.017540 -0.011180 -0.043543
v -0.017540 -0.024169 -0.032392
v -0.050048 0.105593 -0.019520
v -0.049949 0.072215 -0.020667
v -0.000000 0.105593 0.000000
vt 0.983800 0.847000
vt 0.992600 0.834400
vt 0.993700 0.830400
vt 0.993700 0.800900
vt 0.986700 0.805300
vt 0.929600 0.805300
vt 0.922600 0.800900
vt 0.922600 0.830400
vt 0.923700 0.834400
vt 0.932500 0.847000
vt 0.935300 0.848700
vt 0.981000 0.848700
vt 0.779600 0.830100
vt 0.779600 0.800600
vt 0.772500 0.805000
vt 0.715500 0.805000
vt 0.708400 0.800600
vt 0.708400 0.830100
vt 0.709600 0.834100
vt 0.718400 0.846700
vt 0.721200 0.848400
vt 0.766800 0.848400
vt 0.769600 0.846700
vt 0.778400 0.834100
vt 0.621300 0.408100
vt 0.620900 0.408100
vt 0.622300 0.405500
vt 0.620200 0.407700
vt 0.619700 0.407000
vt 0.619700 0.406500
vt 0.619700 0.404000
vt 0.620200 0.403300
vt 0.620900 0.402900
vt 0.621300 0.402900
vt 0.619700 0.404500
vt 0.623400 0.408100
vt 0.625000 0.407000
vt 0.624500 0.407700
vt 0.623800 0.408100
vt 0.625000 0.406500
vt 0.623400 0.402900
vt 0.624500 0.403300
vt 0.625000 0.404000
vt 0.623800 0.402900
vt 0.625000 0.404500
vt 0.749100 0.745300
vt 0.749100 0.708600
vt 0.777900 0.708600
vt 0.777900 0.745300
vt 0.472300 0.287100
vt 0.434700 0.279800
vt 0.436400 0.267600
vt 0.483000 0.280200
vt 0.475800 0.337500
vt 0.458800 0.332000
vt 0.458800 0.297800
vt 0.475800 0.292200
vt 0.401400 0.292100
vt 0.401600 0.278700
vt 0.433500 0.292900
vt 0.401400 0.266100
vt 0.487000 0.275500
vt 0.493000 0.284900
vt 0.487000 0.287000
vt 0.437800 0.259800
vt 0.401000 0.258400
vt 0.162700 0.123700
vt 0.162700 0.169400
vt 0.134900 0.169400
vt 0.134900 0.123700
vt 0.493000 0.344900
vt 0.487000 0.342800
vt 0.134900 0.120500
vt 0.162700 0.120500
vt 0.433300 0.298900
vt 0.401100 0.299200
vt 0.472300 0.342700
vt 0.482900 0.349600
vt 0.436400 0.362200
vt 0.434700 0.350000
vt 0.401400 0.337600
vt 0.433500 0.336800
vt 0.401600 0.351100
vt 0.401400 0.363600
vt 0.487000 0.354200
vt 0.437800 0.369900
vt 0.401000 0.371300
vt 0.401100 0.330500
vt 0.433300 0.330800
vt 0.134900 0.100900
vt 0.134900 0.071500
vt 0.162700 0.071500
vt 0.162700 0.100900
vt 0.134900 0.105100
vt 0.162700 0.105100
vt 0.828500 0.332000
vt 0.839200 0.338900
vt 0.792600 0.351600
vt 0.790900 0.339300
vt 0.815100 0.321300
vt 0.815100 0.287200
vt 0.832000 0.281600
vt 0.832000 0.326900
vt 0.749100 0.665700
vt 0.777900 0.665700
vt 0.757600 0.327000
vt 0.789700 0.326200
vt 0.757800 0.340400
vt 0.757700 0.353000
vt 0.843200 0.332100
vt 0.849200 0.334200
vt 0.843200 0.343600
vt 0.794000 0.359300
vt 0.757300 0.360700
vt 0.843200 0.276400
vt 0.849200 0.274300
vt 0.757300 0.319900
vt 0.789500 0.320200
vt 0.741900 0.614100
vt 0.741900 0.650800
vt 0.713000 0.650800
vt 0.713000 0.614100
vt 0.828500 0.276500
vt 0.790900 0.269100
vt 0.792600 0.256900
vt 0.839100 0.269500
vt 0.741900 0.693700
vt 0.713000 0.693700
vt 0.757600 0.281500
vt 0.757800 0.268000
vt 0.789700 0.282300
vt 0.757600 0.255500
vt 0.843200 0.264900
vt 0.794000 0.249200
vt 0.757200 0.247800
vt 0.757300 0.288600
vt 0.789500 0.288300
vt 0.162700 0.188000
vt 0.162700 0.192200
vt 0.134900 0.192200
vt 0.134900 0.188000
vt 0.162700 0.172600
vt 0.134900 0.172600
vt 0.162700 0.221600
vt 0.134900 0.221600
vn 1.0000 -0.0000 -0.0000
vn -1.0000 -0.0000 0.0000
vn 0.0000 1.0000 -0.0000
vn 0.0000 -0.1151 0.9934
vn 0.0000 -0.0482 0.9988
vn 0.7716 -0.3525 0.5295
vn 0.7094 -0.0669 0.7017
vn 0.2660 -0.0559 0.9624
vn 0.4106 -0.3651 0.8355
vn 0.7860 -0.5999 -0.1494
vn 0.9626 -0.2593 -0.0786
vn 0.9626 -0.2593 0.0786
vn 0.7860 -0.5999 0.1494
vn 0.9652 0.0020 0.2614
vn 0.6981 0.0126 0.7159
vn 0.9660 -0.0920 0.2414
vn 0.2541 0.0177 0.9670
vn 0.0008 -0.8916 0.4527
vn 0.0008 -0.9725 0.2327
vn 0.0008 -0.9725 0.2328
vn 0.6097 -0.7634 0.2132
vn 0.0000 0.0188 0.9998
vn 0.0000 -0.9748 0.2229
vn 0.0000 -0.9748 -0.2229
vn 0.0008 -0.9725 -0.2328
vn 0.0000 -0.7927 0.6096
vn 0.9949 -0.1011 0.0000
vn 1.0000 -0.0030 0.0000
vn 0.6097 -0.7634 -0.2132
vn 0.7716 -0.3525 -0.5295
vn 0.4106 -0.3651 -0.8355
vn 0.2661 -0.0559 -0.9623
vn 0.7093 -0.0669 -0.7017
vn 0.9652 0.0020 -0.2614
vn 0.9660 -0.0920 -0.2414
vn 0.6981 0.0126 -0.7159
vn 0.2541 0.0177 -0.9670
vn 0.0008 -0.8916 -0.4528
vn 0.0000 -0.1151 -0.9934
vn 0.0000 -0.0482 -0.9988
vn 0.0000 0.0188 -0.9998
vn 0.0000 -0.1700 0.9854
vn 0.0000 0.0000 1.0000
vn 0.0000 -0.5017 0.8651
vn -0.7716 -0.3525 0.5295
vn -0.4106 -0.3651 0.8355
vn -0.2659 -0.0559 0.9624
vn -0.7093 -0.0669 0.7017
vn -0.9626 -0.2593 0.0786
vn -0.9626 -0.2593 -0.0786
vn -0.7860 -0.5999 -0.1494
vn -0.7860 -0.5999 0.1494
vn -0.9652 0.0020 0.2614
vn -0.9660 -0.0920 0.2414
vn -0.6981 0.0126 0.7159
vn -0.2541 0.0177 0.9670
vn -0.0008 -0.8916 0.4528
vn -0.0008 -0.9725 0.2328
vn -0.6097 -0.7634 0.2132
vn -0.0008 -0.9725 -0.2328
vn -1.0000 -0.0030 0.0000
vn -0.9949 -0.1011 0.0000
vn -0.6097 -0.7634 -0.2132
vn -0.7716 -0.3525 -0.5295
vn -0.7094 -0.0669 -0.7017
vn -0.2660 -0.0559 -0.9624
vn -0.4106 -0.3651 -0.8355
vn -0.9652 0.0020 -0.2614
vn -0.6981 0.0126 -0.7159
vn -0.9660 -0.0920 -0.2414
vn -0.2541 0.0177 -0.9670
vn -0.0008 -0.8916 -0.4528
vn -0.0000 -0.5016 -0.8651
vn -0.0000 -0.1699 -0.9855
vn -0.0000 -0.1700 -0.9855
vn -0.0000 -0.7927 -0.6095
vn 0.0000 0.0000 -1.0000
usemtl servicebot
s off
f 41/1/1 42/2/1 43/3/1 38/4/1 24/5/1 17/6/1 1/7/1 44/8/1 45/9/1 26/10/1 23/11/1 22/12/1
f 48/13/2 4/14/2 64/15/2 66/16/2 69/17/2 80/18/2 81/19/2 82/20/2 21/21/2 20/22/2 27/23/2 49/24/2
f 19/25/3 16/26/3 85/27/3
f 14/28/3 13/29/3 85/27/3
f 16/26/3 14/28/3 85/27/3
f 13/29/3 29/30/3 85/27/3
f 34/31/3 36/32/3 85/27/3
f 36/32/3 37/33/3 85/27/3
f 37/33/3 40/34/3 85/27/3
f 29/30/3 46/35/3 85/27/3
f 46/35/3 34/31/3 85/27/3
f 58/36/3 19/25/3 85/27/3
f 59/37/3 61/38/3 85/27/3
f 61/38/3 62/39/3 85/27/3
f 62/39/3 58/36/3 85/27/3
f 67/40/3 59/37/3 85/27/3
f 40/34/3 75/41/3 85/27/3
f 77/42/3 76/43/3 85/27/3
f 79/44/3 77/42/3 85/27/3
f 75/41/3 79/44/3 85/27/3
f 83/45/3 67/40/3 85/27/3
f 76/43/3 83/45/3 85/27/3
s 1
f 1/46/4 2/47/5 3/48/5 4/49/4
f 5/50/6 6/51/7 7/52/8 8/53/9
f 9/54/10 10/55/11 11/56/12 12/57/13
f 13/58/14 14/59/15 6/51/7 15/60/16
f 5/50/6 15/60/16 6/51/7
f 16/61/17 7/52/8 6/51/7 14/59/15
f 11/56/12 5/50/6 12/57/13
f 8/53/18 1/62/18 17/63/19 18/64/20
f 5/50/6 8/53/9 18/64/21 12/57/13
f 1/62/4 8/53/9 7/52/8 2/65/5
f 2/65/5 7/52/8 16/61/17 19/66/22
f 20/67/23 21/68/24 22/69/24 23/70/23
f 17/63/19 24/71/25 25/72/25 18/64/20
f 26/73/26 27/74/26 20/67/23 23/70/23
f 13/58/14 15/60/16 28/75/27 29/76/28
f 28/75/27 15/60/16 11/56/12
f 12/57/13 18/64/21 25/72/29 9/54/10
f 30/77/30 31/78/31 32/79/32 33/80/33
f 34/81/34 35/82/35 33/80/33 36/83/36
f 30/77/30 35/82/35 10/55/11
f 37/84/37 36/83/36 33/80/33 32/79/32
f 10/55/11 9/54/10 30/77/30
f 31/78/38 25/72/25 24/71/25 38/85/38
f 30/77/30 9/54/10 25/72/29 31/78/31
f 38/85/39 39/86/40 32/79/32 31/78/31
f 39/86/40 40/87/41 37/84/37 32/79/32
f 46/88/28 29/76/28 28/75/27 47/89/27
f 34/81/34 46/88/28 47/89/27 35/82/35
f 47/89/27 10/55/11 35/82/35
f 28/75/27 11/56/12 10/55/11 47/89/27
f 44/90/42 1/91/43 4/92/43 48/93/42
f 26/73/26 45/94/44 49/95/44 27/74/26
f 50/96/45 51/97/46 52/98/47 53/99/48
f 54/100/49 55/101/50 56/102/51 57/103/52
f 3/48/5 2/47/5 19/104/22 58/105/22
f 59/106/53 60/107/54 53/99/48 61/108/55
f 50/96/45 60/107/54 54/100/49
f 62/109/56 61/108/55 53/99/48 52/98/47
f 54/100/49 57/103/52 50/96/45
f 51/97/57 63/110/58 64/111/58 4/112/57
f 50/96/45 57/103/52 63/110/59 51/97/46
f 4/112/4 3/113/5 52/98/47 51/97/46
f 3/113/5 58/114/22 62/109/56 52/98/47
f 65/115/60 66/116/60 64/111/58 63/110/58
f 49/95/44 45/94/44 44/90/42 48/93/42
f 59/106/53 67/117/61 68/118/62 60/107/54
f 68/118/62 54/100/49 60/107/54
f 65/115/63 63/110/59 57/103/52 56/102/51
f 69/119/39 70/120/40 39/121/40 38/122/39
f 71/123/64 72/124/65 73/125/66 74/126/67
f 75/127/41 40/128/41 39/121/40 70/120/40
f 76/129/68 77/130/69 72/124/65 78/131/70
f 71/123/64 55/101/50 78/131/70
f 79/132/71 73/125/66 72/124/65 77/130/69
f 55/101/50 71/123/64 56/102/51
f 74/126/72 69/133/72 66/116/60 65/115/60
f 71/123/64 74/126/67 65/115/63 56/102/51
f 69/133/39 74/126/67 73/125/66 70/134/40
f 70/134/40 73/125/66 79/132/71 75/135/41
f 68/118/62 67/117/61 83/136/61 84/137/62
f 81/138/73 80/139/74 43/140/75 42/141/73
f 82/142/76 41/143/76 22/69/24 21/68/24
f 76/129/68 78/131/70 84/137/62 83/136/61
f 84/137/62 78/131/70 55/101/50
f 55/101/50 54/100/49 68/118/62 84/137/62
f 43/140/75 80/139/74 69/144/77 38/145/77
f 41/143/76 82/142/76 81/138/73 42/141/73
f 30/77/30 33/80/33 35/82/35
f 5/50/6 11/56/12 15/60/16
f 50/96/45 53/99/48 60/107/54
f 78/131/70 72/124/65 71/123/64
